<?xml version="1.0" encoding="utf-8"?>
<!-- Generator: Adobe Illustrator 15.0.0, SVG Export Plug-In  -->
<!DOCTYPE svg PUBLIC "-//W3C//DTD SVG 1.1//EN" "http://www.w3.org/Graphics/SVG/1.1/DTD/svg11.dtd" [
	<!ENTITY ns_flows "http://ns.adobe.com/Flows/1.0/">
]>
<svg version="1.1"
	 xmlns="http://www.w3.org/2000/svg" xmlns:xlink="http://www.w3.org/1999/xlink" xmlns:a="http://ns.adobe.com/AdobeSVGViewerExtensions/3.0/"
	 x="0px" y="0px" width="142px" height="99px" viewBox="-1.595 -0.642 142 99"
	 overflow="visible" enable-background="new -1.595 -0.642 142 99" xml:space="preserve">
<defs>
</defs>
<path fill="#56717E" d="M49.176,81.434L34.73,56.301c-0.791-1.386-2.572-1.88-3.958-1.089l-11.478,6.53
	c-0.692,0.396-1.188,0.99-1.385,1.781c-0.198,0.792-0.099,1.584,0.297,2.276l14.347,25.132c0.495,0.989,1.583,1.484,2.573,1.484
	c0.494,0,0.989-0.099,1.483-0.396l11.478-6.53c0.693-0.396,1.188-0.99,1.385-1.781C49.573,82.917,49.473,82.125,49.176,81.434z"/>
<path fill="#E21F26" d="M53.431,28.398c3.265,0,5.839-2.672,5.839-5.839c0-3.265-2.672-5.837-5.839-5.837
	c-3.265,0-5.837,2.672-5.837,5.837C47.594,25.727,50.167,28.398,53.431,28.398z"/>
<path fill="#E21F26" d="M69.758,24.34c3.266,0,5.837-2.671,5.837-5.837c0-3.266-2.671-5.838-5.837-5.838
	c-3.266,0-5.838,2.672-5.838,5.838C63.92,21.669,66.592,24.34,69.758,24.34z"/>
<path fill="#E21F26" d="M86.281,28.398c3.266,0,5.838-2.672,5.838-5.839c0-3.265-2.672-5.837-5.838-5.837
	c-3.265,0-5.837,2.672-5.837,5.837C80.444,25.727,83.017,28.398,86.281,28.398z"/>
<path fill="#E21F26" d="M88.162,30.673C88.162,30.673,88.062,30.673,88.162,30.673H84.6c-2.572-0.098-4.849,1.484-6.036,3.859
	v-0.098c-0.098-4.453-3.166-7.916-6.926-7.916c0,0,0,0-0.099,0h-3.463c-3.761-0.1-6.926,3.364-7.025,7.816v0.1v0.098
	c-1.187-2.375-3.463-3.958-5.937-3.859c0,0,0,0-0.099,0h-3.463c-3.76-0.098-6.926,3.364-7.024,7.817v0.099v3.76
	c0,0.792,0.692,1.286,1.385,1.286h47.791c0.693,0,1.386-0.396,1.386-1.286v-3.76C94.989,34.137,91.922,30.575,88.162,30.673z"/>
<path fill="#56717E" d="M46.505,49.176c-1.484,0-2.869,0.594-3.858,1.584l-7.421,7.42c-1.781,1.78-2.078,4.452-0.891,6.63
	l7.718,13.357c0.99,1.682,2.771,2.771,4.749,2.771h40.073c3.166,0,6.036-1.188,8.312-3.463l23.846-24.044
	c1.881-1.781,2.87-4.354,2.87-6.926c0-2.573-1.089-5.046-2.87-6.926c-1.78-1.781-4.254-2.771-6.728-2.771
	c-2.572,0-4.947,0.99-6.729,2.771l-0.297-0.198l0.297,0.297L87.568,57.785c-0.1,0.099-0.198,0.099-0.396,0.099
	c-0.099,0-0.197-0.197-0.297-0.297c-0.594-4.749-4.749-8.411-9.597-8.411H46.505z M86.875,75.892H46.902
	c-0.1,0-0.297-0.099-0.297-0.197l-7.719-13.358c-0.098-0.099-0.098-0.297,0.099-0.494l7.421-7.421c0.099-0.1,0.199-0.1,0.297-0.1
	h30.872c2.473,0,4.551,2.078,4.551,4.553c0,2.473-2.078,4.551-4.551,4.551H63.029v3.364h20.383c1.584,0,3.067-0.594,4.156-1.682
	l21.471-21.571c0.891-0.792,1.979-1.287,3.166-1.287c1.188,0,2.375,0.495,3.167,1.287c0.891,0.792,1.385,1.979,1.385,3.167
	c0,1.187-0.494,2.374-1.385,3.167c0,0,0,0-0.1,0L91.525,73.913C90.338,75.2,88.656,75.892,86.875,75.892z"/>
<rect fill="none" width="140.405" height="97.858"/>
</svg>
