<?xml version="1.0" encoding="utf-8"?>
<!-- Generator: Adobe Illustrator 15.0.0, SVG Export Plug-In  -->
<!DOCTYPE svg PUBLIC "-//W3C//DTD SVG 1.1//EN" "http://www.w3.org/Graphics/SVG/1.1/DTD/svg11.dtd" [
	<!ENTITY ns_flows "http://ns.adobe.com/Flows/1.0/">
]>
<svg version="1.1"
	 xmlns="http://www.w3.org/2000/svg" xmlns:xlink="http://www.w3.org/1999/xlink" xmlns:a="http://ns.adobe.com/AdobeSVGViewerExtensions/3.0/"
	 x="0px" y="0px" width="142px" height="99px" viewBox="-1.062 -0.642 142 99"
	 overflow="visible" enable-background="new -1.062 -0.642 142 99" xml:space="preserve">
<defs>
</defs>
<path fill="#56717E" d="M70.154,80.543c-8.114,0-16.129-3.067-22.263-9.202c-12.368-12.368-12.368-32.355,0-44.625l0,0
	c12.269-12.368,32.257-12.368,44.525,0c12.27,12.27,12.27,32.356,0,44.625C86.281,77.476,78.267,80.543,70.154,80.543z
	 M51.354,30.179c-10.39,10.39-10.39,27.211,0,37.6c10.389,10.39,27.209,10.39,37.599,0c10.39-10.389,10.39-27.309,0-37.699
	C78.563,19.789,61.743,19.789,51.354,30.179L51.354,30.179z"/>
<path fill="#E21F26" d="M60.357,68.174c2.969,1.484,6.234,2.375,9.796,2.375c11.874,0,21.57-9.697,21.57-21.57
	c0-11.874-9.696-21.571-21.57-21.571c-11.875,0-21.571,9.697-21.571,21.571c0,3.462,0.891,6.827,2.375,9.795l0,0
	c0.1,0.1,0.199,0.198,0.297,0.198c0.1,0,0.199,0,0.297-0.099l0,0l7.52-7.521c0.099-0.099,0.099-0.396,0-0.495l-1.385-1.385
	c-0.1-0.099-0.198-0.396-0.1-0.594l4.948-15.336c0.099-0.199,0.297-0.396,0.495-0.396l9.895-2.475c0.198,0,0.495,0,0.594,0.199
	l2.87,2.87c0.098,0.099,0.098,0.396,0,0.494l-5.937,5.938c-0.199-0.099-0.297,0.198-0.297,0.396v3.661
	c0,0.198,0.099,0.495,0.297,0.594l3.858,3.859c0.099,0.098,0.396,0.297,0.594,0.297h3.66c0.199,0,0.496-0.1,0.594-0.297l5.938-5.938
	c0.099-0.099,0.396-0.099,0.495,0l2.869,2.87c0.098,0.099,0.197,0.396,0.197,0.594l-2.473,9.894c0,0.198-0.199,0.396-0.396,0.495
	l-15.336,4.947c-0.199,0.099-0.496,0-0.594-0.1l-1.386-1.385c-0.099-0.1-0.396-0.1-0.495,0l-7.718,7.619l0,0
	c-0.099,0.099-0.099,0.197-0.099,0.297C60.16,68.075,60.259,68.174,60.357,68.174L60.357,68.174z"/>
<circle fill="#56717E" cx="13.358" cy="39.48" r="5.244"/>
<path fill="#56717E" d="M41.459,46.406H30.377c-0.693,0-1.287-0.297-1.781-0.693l-3.859-3.859h-8.708v-4.947h9.796
	c0.692,0,1.286,0.297,1.781,0.692l3.858,3.859h9.994V46.406z"/>
<circle fill="#56717E" cx="13.358" cy="58.478" r="5.244"/>
<circle fill="#56717E" cx="13.358" cy="20.384" r="5.244"/>
<path fill="#56717E" d="M25.826,60.951h-9.796v-4.849h8.708l3.859-3.858c0.494-0.495,1.088-0.693,1.781-0.693h11.082v4.848H31.366
	l-3.858,3.858C27.112,60.654,26.419,60.951,25.826,60.951z"/>
<path fill="#56717E" d="M44.328,36.511h-7.421c-0.693,0-1.287-0.297-1.78-0.693L22.165,22.856h-8.807V17.91h9.795
	c0.692,0,1.286,0.297,1.781,0.692l12.962,12.962h6.431V36.511z"/>
<circle fill="#56717E" cx="13.358" cy="77.574" r="5.244"/>
<path fill="#56717E" d="M23.154,80.048h-9.795V75.2h8.807l12.962-12.963c0.494-0.495,1.087-0.692,1.78-0.692h7.421v4.848h-6.431
	L24.935,79.256C24.44,79.751,23.846,80.048,23.154,80.048z"/>
<circle fill="#56717E" cx="126.949" cy="39.48" r="5.244"/>
<path fill="#56717E" d="M109.93,46.406H98.849v-4.947h10.092l3.858-3.859c0.495-0.495,1.089-0.692,1.781-0.692h9.796v4.947h-8.707
	l-3.858,3.859C111.217,46.208,110.623,46.406,109.93,46.406z"/>
<circle fill="#56717E" cx="126.949" cy="58.478" r="5.244"/>
<circle fill="#56717E" cx="126.949" cy="20.384" r="5.244"/>
<path fill="#56717E" d="M124.277,60.951h-9.796c-0.692,0-1.286-0.297-1.781-0.693l-3.858-3.858h-9.993v-4.848h11.081
	c0.693,0,1.287,0.296,1.781,0.693l3.858,3.858h8.708V60.951L124.277,60.951z"/>
<path fill="#56717E" d="M103.399,36.511h-7.421v-4.948h6.432l12.962-12.962c0.494-0.494,1.088-0.692,1.781-0.692h9.796v4.946h-8.808
	l-12.961,12.962C104.686,36.313,104.092,36.511,103.399,36.511z"/>
<circle fill="#56717E" cx="126.949" cy="77.574" r="5.244"/>
<path fill="#56717E" d="M126.949,80.048h-9.796c-0.693,0-1.287-0.297-1.781-0.692L102.41,66.393h-6.432v-4.848h7.421
	c0.692,0,1.286,0.297,1.781,0.692L118.142,75.2h8.808V80.048z"/>
<rect fill="none" width="140.405" height="97.858"/>
</svg>
