<?xml version="1.0" encoding="utf-8"?>
<!-- Generator: Adobe Illustrator 15.0.0, SVG Export Plug-In  -->
<!DOCTYPE svg PUBLIC "-//W3C//DTD SVG 1.1//EN" "http://www.w3.org/Graphics/SVG/1.1/DTD/svg11.dtd" [
	<!ENTITY ns_flows "http://ns.adobe.com/Flows/1.0/">
]>
<svg version="1.1"
	 xmlns="http://www.w3.org/2000/svg" xmlns:xlink="http://www.w3.org/1999/xlink" xmlns:a="http://ns.adobe.com/AdobeSVGViewerExtensions/3.0/"
	 x="0px" y="0px" width="142px" height="99px" viewBox="-1.595 -0.642 142 99"
	 overflow="visible" enable-background="new -1.595 -0.642 142 99" xml:space="preserve">
<defs>
</defs>
<path fill="#56717E" d="M28.497,86.776c-1.385,0-2.473-1.089-2.473-2.474V19.789c0-0.395,0.099-0.792,0.297-1.088l4.947-9.795
	c0.396-0.792,1.286-1.385,2.177-1.385h24.638c0.891,0,1.78,0.495,2.176,1.385l4.255,8.509h32.554c1.385,0,2.473,1.089,2.473,2.474
	v11.775c0,1.385-1.088,2.474-2.473,2.474c-1.386,0-2.475-1.089-2.475-2.474v-9.4H62.931c-0.891,0-1.781-0.494-2.177-1.385
	l-4.254-8.51h-21.57l-3.958,8.015v63.92C30.971,85.688,29.882,86.776,28.497,86.776z"/>
<path fill="#56717E" d="M67.581,86.776H28.497c-0.791,0-1.483-0.396-1.979-0.989c-0.495-0.594-0.594-1.386-0.396-2.178
	l11.972-41.854c0.297-1.088,1.287-1.781,2.374-1.781h27.311l9.202-9.103c0.494-0.495,1.088-0.693,1.682-0.693h32.851
	c0.791,0,1.483,0.396,1.979,0.99c0.494,0.594,0.594,1.385,0.396,2.176l-3.463,12.072c-0.396,1.287-1.683,2.078-3.067,1.683
	c-1.286-0.396-2.078-1.683-1.682-3.068l2.572-8.905H79.751l-9.202,9.103c-0.495,0.495-1.088,0.693-1.682,0.693H42.35L31.762,81.828
	h35.818c1.386,0,2.473,1.089,2.473,2.475C70.054,85.688,68.966,86.776,67.581,86.776z"/>
<path fill="#E21F26" d="M89.646,90.338h4.155c0.396,0,0.791-0.197,1.088-0.396c0.297-0.297,0.396-0.692,0.396-1.089V84.6
	c1.979-0.396,3.957-1.188,5.738-2.375l3.067,3.067c0.297,0.297,0.693,0.396,1.089,0.396c0.198,0,0.396,0,0.594-0.099
	s0.297-0.198,0.396-0.297l2.969-2.968c0.594-0.594,0.594-1.484,0-2.078l-3.067-3.067c1.089-1.781,1.979-3.662,2.374-5.739h4.255
	c0.396,0,0.792-0.198,1.089-0.396c0.297-0.297,0.396-0.693,0.396-1.089V65.8c0-0.396-0.198-0.792-0.396-1.089
	c-0.297-0.297-0.693-0.396-1.089-0.396h-4.255c-0.395-2.078-1.188-3.958-2.374-5.738l3.067-3.068c0.594-0.594,0.594-1.483,0-2.077
	l-2.969-2.968c-0.297-0.297-0.692-0.396-1.088-0.396c-0.396,0-0.792,0.198-1.089,0.396l-3.067,3.067
	c-1.78-1.088-3.661-1.979-5.739-2.375v-4.254c0-0.792-0.692-1.484-1.484-1.484h-4.155c-0.396,0-0.791,0.198-1.088,0.396
	c-0.297,0.297-0.396,0.693-0.396,1.088v4.254c-1.979,0.396-3.957,1.188-5.738,2.375l-3.067-3.067
	c-0.297-0.297-0.693-0.396-1.088-0.396c-0.396,0-0.793,0.198-1.09,0.396l-2.968,2.968c-0.594,0.594-0.594,1.483,0,2.077l3.067,3.068
	c-1.088,1.78-1.979,3.66-2.375,5.738h-4.255c-0.791,0-1.484,0.692-1.484,1.484v4.155c0,0.396,0.198,0.792,0.396,1.089
	c0.297,0.297,0.692,0.396,1.088,0.396h4.255c0.396,2.077,1.188,3.958,2.375,5.739l-3.067,3.067
	c-0.297,0.297-0.396,0.692-0.396,1.088c0,0.396,0.197,0.791,0.396,1.088l2.968,2.969c0.594,0.594,1.484,0.594,2.078,0l3.067-3.066
	c1.781,1.088,3.662,1.979,5.739,2.374v4.255C88.162,89.744,88.756,90.338,89.646,90.338z M80.543,67.877
	c0-2.968,1.188-5.738,3.266-7.916c0.989-0.988,2.078-1.681,3.265-2.274c4.255-1.881,9.202-0.99,12.467,2.274
	c2.078,2.078,3.266,4.948,3.266,7.916c0,2.969-1.188,5.739-3.266,7.916c-0.988,0.989-2.078,1.683-3.265,2.276
	c-4.255,1.88-9.202,0.989-12.467-2.276C81.73,73.716,80.543,70.846,80.543,67.877z"/>
<rect fill="none" width="140.405" height="97.858"/>
</svg>
