<?xml version="1.0" encoding="utf-8"?>
<!-- Generator: Adobe Illustrator 23.1.1, SVG Export Plug-In . SVG Version: 6.00 Build 0)  -->
<svg version="1.1" id="Layer_1" xmlns="http://www.w3.org/2000/svg" xmlns:xlink="http://www.w3.org/1999/xlink" x="0px" y="0px"
	 viewBox="0 0 72 72" style="enable-background:new 0 0 72 72;" xml:space="preserve">
<style type="text/css">
	.st0{fill:#010101;}
	.st1{fill:none;}
</style>
<g>
	<g>
		<g>
			<path class="st0" d="M66.6,39.3C66.6,39.3,66.6,39.3,66.6,39.3l3.9-13.5c0.2-0.6,0-1.2-0.3-1.7c-0.4-0.5-0.9-0.8-1.5-0.8H59V11
				c0-1.1-0.9-1.9-1.9-1.9H31.5l-3.3-6.7c-0.3-0.7-1-1.1-1.7-1.1H7.1c-0.7,0-1.4,0.4-1.7,1.1l-3.9,7.7c-0.1,0.3-0.2,0.6-0.2,0.9
				v54.9c0,0.1,0,0.2,0,0.3c0,0,0,0.1,0,0.1c0,0.1,0.1,0.3,0.1,0.4c0,0,0,0,0,0.1c0.1,0.1,0.1,0.2,0.2,0.3c0,0,0,0,0,0
				c0,0,0,0,0.1,0.1c0.1,0.1,0.1,0.1,0.2,0.2c0,0,0.1,0.1,0.1,0.1c0.1,0.1,0.1,0.1,0.2,0.1c0,0,0.1,0,0.1,0.1c0.1,0,0.2,0.1,0.3,0.1
				c0,0,0.1,0,0.1,0c0.1,0,0.3,0,0.4,0h38c2.9,1.7,6.3,2.8,10,2.8c10.7,0,19.4-8.7,19.4-19.4C70.6,46.7,69.1,42.5,66.6,39.3z
				 M8.3,5.2h17l3.3,6.7c0.3,0.7,1,1.1,1.7,1.1h24.8v10.4H42.7c-0.5,0-1,0.2-1.4,0.6l-7.3,7.2H12.7c-0.9,0-1.6,0.6-1.9,1.4L5.2,52.2
				V11.4L8.3,5.2z M14.1,34.9h20.8c0.5,0,1-0.2,1.4-0.6l7.3-7.2H66l-2.5,8.9c-3.3-2.7-7.6-4.3-12.2-4.3c-10.7,0-19.4,8.7-19.4,19.4
				c0,4.9,1.8,9.4,4.8,12.8H5.8L14.1,34.9z M62.1,62c-6,6-15.8,6-21.8,0c-6-6-6-15.8,0-21.8c6-6,15.8-6,21.8,0
				C68.1,46.3,68.1,56,62.1,62z"/>
			<path class="st0" d="M51.2,39.6c-6.4,0-11.5,5.2-11.5,11.5c0,4.2,2.2,7.8,5.5,9.8l0,0c0.1,0.1,0.4,0.1,0.4-0.1l4.3-11.1l0,0
				c0-0.1,0-0.2-0.1-0.2l0,0c-1.7-0.6-2.9-2.2-2.9-4.1c0-2.4,1.9-4.3,4.3-4.3c2.4,0,4.3,1.9,4.3,4.3c0,1.9-1.2,3.5-2.9,4.1l0,0
				c-0.1,0-0.1,0.1-0.1,0.2l0,0l4.3,11.1c0.1,0.2,0.3,0.2,0.4,0.1l0,0c3.3-2,5.5-5.7,5.5-9.8C62.7,44.8,57.6,39.6,51.2,39.6z"/>
		</g>
	</g>
	<rect class="st1" width="72" height="72"/>
</g>
</svg>
