<?xml version="1.0" encoding="utf-8"?>
<!-- Generator: Adobe Illustrator 23.1.1, SVG Export Plug-In . SVG Version: 6.00 Build 0)  -->
<svg version="1.1" id="Layer_1" xmlns="http://www.w3.org/2000/svg" xmlns:xlink="http://www.w3.org/1999/xlink" x="0px" y="0px"
	 viewBox="0 0 72 72" style="enable-background:new 0 0 72 72;" xml:space="preserve">
<style type="text/css">
	.st0{fill:#010101;}
	.st1{fill:none;}
</style>
<g>
	<g>
		<g>
			<path class="st0" d="M50.8,47.2c-4.4,0-7.9,3.8-7.9,8.5c0,3.9,2.4,7.2,5.8,8.2c0.7,0.2,22,6.5,22,6.5V47.2H50.8z"/>
			<path class="st0" d="M21.2,47.2H1.3v23.2c0,0,21.4-6.3,22-6.5c3.3-1,5.8-4.3,5.8-8.2C29.1,51.1,25.6,47.2,21.2,47.2z"/>
			<path class="st0" d="M35.9,17.8C35.9,17.8,35.9,17.8,35.9,17.8c3.5,0,6.7-1.3,9.2-3.8l10-9.9l-2.7-2.7l-10,9.9
				c-1.7,1.7-4,2.7-6.4,2.7c-2.4,0-4.7-0.9-6.4-2.7l-10-10L16.8,4l10,10C29.2,16.5,32.5,17.8,35.9,17.8z"/>
			<path class="st0" d="M58.2,25.3L70.5,13l-2.7-2.7L55.5,22.5l-2-2c-4.7,4.7-10.9,7.3-17.5,7.3c-6.6,0-12.9-2.6-17.5-7.3l-2,2
				L4.2,10.3l-2.7,2.7l12.2,12.2l-2.1,2.1c6.5,6.5,15.1,10.1,24.3,10.1c9.2,0,17.8-3.6,24.3-10.1L58.2,25.3z"/>
		</g>
	</g>
	<rect x="0" class="st1" width="72" height="72"/>
</g>
</svg>
