<?xml version="1.0" encoding="utf-8"?>
<!-- Generator: Adobe Illustrator 23.1.1, SVG Export Plug-In . SVG Version: 6.00 Build 0)  -->
<svg version="1.1" id="Layer_1" xmlns="http://www.w3.org/2000/svg" xmlns:xlink="http://www.w3.org/1999/xlink" x="0px" y="0px"
	 viewBox="0 0 72 72" style="enable-background:new 0 0 72 72;" xml:space="preserve">
<style type="text/css">
	.st0{fill:#010101;}
	.st1{fill:none;}
</style>
<g>
	<g>
		<path class="st0" d="M51.2,31.7c-10.7,0-19.4,8.7-19.4,19.4c0,10.7,8.7,19.4,19.4,19.4c10.7,0,19.4-8.7,19.4-19.4
			C70.6,40.4,61.9,31.7,51.2,31.7z M62.1,52.5l-15.9,9.7c-0.3,0.2-0.6,0.3-0.9,0.3c-0.3,0-0.5-0.1-0.7-0.2c-0.5-0.3-0.8-0.9-0.8-1.5
			V41.6c0-0.9,0.5-1.4,0.7-1.5c0.5-0.3,1-0.3,1.6,0L62,49.7c0.5,0.4,0.8,0.9,0.8,1.4C62.8,51.7,62.5,52.2,62.1,52.5z"/>
		<g>
			<g>
				<rect x="13.6" y="15.5" class="st0" width="36.2" height="5.7"/>
				<path class="st0" d="M9.8,21.4c0,0.6-0.5,1.2-1.2,1.2H2.5c-0.6,0-1.2-0.5-1.2-1.2v-6.1c0-0.6,0.5-1.2,1.2-1.2h6.1
					c0.6,0,1.2,0.5,1.2,1.2V21.4z"/>
				<g>
					<polygon class="st0" points="31.4,28.2 31.4,33.9 13.6,33.9 13.6,28.2 					"/>
					<path class="st0" d="M9.8,34.1c0,0.6-0.5,1.2-1.2,1.2H2.5c-0.6,0-1.2-0.5-1.2-1.2V28c0-0.6,0.5-1.2,1.2-1.2h6.1
						c0.6,0,1.2,0.5,1.2,1.2V34.1z"/>
				</g>
			</g>
			<g>
				<rect x="13.6" y="2.7" class="st0" width="25.5" height="5.7"/>
				<path class="st0" d="M9.8,8.6c0,0.6-0.5,1.2-1.2,1.2H2.5c-0.6,0-1.2-0.5-1.2-1.2V2.5c0-0.6,0.5-1.2,1.2-1.2h6.1
					c0.6,0,1.2,0.5,1.2,1.2V8.6z"/>
			</g>
		</g>
	</g>
	<rect class="st1" width="72" height="72"/>
</g>
</svg>
