<?xml version="1.0" encoding="utf-8"?>
<!-- Generator: Adobe Illustrator 23.1.1, SVG Export Plug-In . SVG Version: 6.00 Build 0)  -->
<svg version="1.1" id="Layer_1" xmlns="http://www.w3.org/2000/svg" xmlns:xlink="http://www.w3.org/1999/xlink" x="0px" y="0px"
	 viewBox="0 0 72 72" style="enable-background:new 0 0 72 72;" xml:space="preserve">
<style type="text/css">
	.st0{fill:#010101;}
	.st1{fill:none;}
</style>
<g>
	<g>
		<g>
			<path class="st0" d="M36,39.2c10.4,0,18.8-8.4,18.8-18.8S46.4,1.6,36,1.6s-18.8,8.4-18.8,18.8S25.6,39.2,36,39.2z M22.9,27.5h5.6
				c0.4,2.5,1,4.8,1.9,6.7C27.2,32.9,24.5,30.5,22.9,27.5z M21.1,20.4c0-1.2,0.2-2.4,0.4-3.5h6.6C28,18.1,28,19.2,28,20.4
				c0,1.1,0,2.2,0.1,3.2h-6.6C21.2,22.6,21.1,21.5,21.1,20.4z M36,5.5c0.9,0,2.6,2.6,3.6,7.6h-7.1C33.4,8,35.1,5.5,36,5.5z
				 M40.1,16.9c0.1,1.1,0.1,2.3,0.1,3.5c0,1.1,0,2.2-0.1,3.2h-8.2c-0.1-1-0.1-2.1-0.1-3.2c0-1.2,0-2.4,0.1-3.5H40.1z M50.9,20.4
				c0,1.1-0.1,2.2-0.4,3.2h-6.6c0.1-1.1,0.1-2.2,0.1-3.2c0-1.2,0-2.3-0.1-3.5h6.6C50.8,18,50.9,19.2,50.9,20.4z M36,35.4
				c-0.9,0-2.7-2.7-3.6-7.8h7.2C38.7,32.7,36.9,35.4,36,35.4z M41.6,34.3c0.8-1.9,1.5-4.2,1.9-6.7h5.6
				C47.5,30.5,44.8,32.9,41.6,34.3z M49,13.1h-5.5c-0.4-2.4-1-4.6-1.8-6.5C44.7,7.9,47.3,10.2,49,13.1z M30.4,6.6
				c-0.8,1.8-1.4,4.1-1.8,6.5H23C24.7,10.2,27.3,7.9,30.4,6.6z"/>
			<path class="st0" d="M68.2,35.8C67,34.6,65.3,34,63.6,34c-1.7,0-3.4,0.7-4.6,1.9c0,0,0,0,0,0L47.2,47.6c-0.4-3.2-3.2-5.7-6.5-5.7
				H20.5c-1,0-2,0.4-2.7,1.1l-4.5,4.5l-0.4-0.8c-0.5-0.9-1.7-1.2-2.6-0.7l-7.5,4.3c-0.4,0.3-0.8,0.7-0.9,1.2C1.6,52,1.7,52.5,2,53
				l9.4,16.5c0.4,0.6,1,1,1.7,1c0.3,0,0.6-0.1,0.9-0.3l7.5-4.3c0.4-0.3,0.8-0.7,0.9-1.2c0.1-0.5,0.1-1-0.2-1.5l0-0.1H47
				c2.1,0,4.1-0.8,5.6-2.3l15.5-15.6c0,0,0.1-0.1,0.1-0.1c1.3-1.2,2-2.9,2-4.7C70.2,38.8,69.5,37.1,68.2,35.8z M65.5,42.4L65.5,42.4
				L49.9,58.2c-0.8,0.8-1.8,1.2-2.9,1.2H20.7l-0.6-1l-4.5-7.8l4.8-4.8h20.2c1.5,0,2.7,1.2,2.7,2.7c0,1.5-1.2,2.7-2.7,2.7h-9.7v2.7
				h13.6c0,0,0,0,0,0c1.1,0,2.1-0.4,2.9-1.2l14.1-14.1c0.5-0.5,1.2-0.8,1.9-0.8c0.7,0,1.4,0.3,1.9,0.8c0.5,0.5,0.8,1.2,0.8,1.9
				C66.3,41.2,66,41.9,65.5,42.4z"/>
		</g>
	</g>
	<rect class="st1" width="72" height="72"/>
</g>
</svg>
