<?xml version="1.0" encoding="utf-8"?>
<!-- Generator: Adobe Illustrator 23.1.1, SVG Export Plug-In . SVG Version: 6.00 Build 0)  -->
<svg version="1.1" id="Layer_1" xmlns="http://www.w3.org/2000/svg" xmlns:xlink="http://www.w3.org/1999/xlink" x="0px" y="0px"
	 viewBox="0 0 72 72" style="enable-background:new 0 0 72 72;" xml:space="preserve">
<style type="text/css">
	.st0{fill:#010101;}
	.st1{fill:none;}
</style>
<g>
	<g>
		<g>
			<path class="st0" d="M57.3,56.9c-0.3-0.2-0.6-0.2-0.6,0.2v4.4H25.6c-0.3-0.9-0.8-1.7-1.6-2.5c-1.3-1.3-3-2-4.8-2
				c-1.7,0-3.4,0.7-4.8,2c-1.3,1.3-2,3-2,4.8c0,1.7,0.7,3.4,2,4.8c1.3,1.3,3,2,4.8,2c1.7,0,3.4-0.7,4.8-2c0.8-0.8,1.4-1.8,1.7-2.8
				h31v4.5c0,0.3,0.3,0.4,0.6,0.2l13-6.3c0.3-0.2,0.3-0.7,0-0.9L57.3,56.9z"/>
			<path class="st0" d="M57.3,33.1c-0.3-0.2-0.6-0.2-0.6,0.2v4.4H43.9c-0.5-2.7-1.7-5.1-3.6-7c-2.3-2.3-5.6-3.8-9.2-3.8
				s-6.8,1.4-9.2,3.8c-2.3,2.3-3.8,5.6-3.8,9.2c0,3.6,1.5,6.8,3.8,9.2c2.3,2.3,5.6,3.8,9.2,3.8s6.8-1.4,9.2-3.8
				c1.9-1.9,3.1-4.3,3.6-7h12.8v4.5c0,0.3,0.3,0.4,0.6,0.2l13-6.3c0.3-0.2,0.3-0.7,0-0.9L57.3,33.1z M35.1,41.8h-2v2
				c0,1.1-0.9,1.9-1.9,1.9c-1.1,0-1.9-0.9-1.9-1.9v-2h-2c-1.1,0-1.9-0.9-1.9-1.9c0-1.1,0.9-1.9,1.9-1.9h2v-2c0-1.1,0.9-1.9,1.9-1.9
				c1.1,0,1.9,0.9,1.9,1.9v2h2c1.1,0,1.9,0.9,1.9,1.9C37.1,40.9,36.2,41.8,35.1,41.8z"/>
			<path class="st0" d="M25.2,7.7l-5.7-6.1C17,1.6,13.1,2.3,9.4,5.3l5.8,7C18.6,9.7,22.3,8.2,25.2,7.7z"/>
			<path class="st0" d="M11.7,15.6c0.4-0.4,0.7-0.8,1.1-1.2L7.1,7.6C4.7,10.1,2.9,13,1.4,16L6.7,23C8.1,20.3,9.8,17.8,11.7,15.6z"/>
			<path class="st0" d="M14,18c-2,2.3-3.7,5-5.2,7.9l6.3,8.5c1.3-2.4,2.9-4.8,4.6-6.9c0.7-0.8,1.3-1.5,2.1-2.2L14.9,17
				C14.6,17.3,14.3,17.6,14,18z"/>
			<path class="st0" d="M24.3,23.1c2.9-2.4,6.1-4,8.8-4.9h23.6v4.5c0,0.3,0.3,0.4,0.6,0.2l13-6.3c0.3-0.2,0.3-0.7,0-0.9l-13-6.3
				C57,9,56.7,9.1,56.7,9.5v4.4H30.9l-2.9-3.1c-2.5-0.1-6.8,1.1-10.7,4.1L24.3,23.1z"/>
			<path class="st0" d="M5.9,56.8c-1.1,0-2.3,0.4-3.1,1.3c-0.9,0.9-1.3,2-1.3,3.1c0,1.1,0.4,2.3,1.3,3.1c0.9,0.9,2,1.3,3.1,1.3
				c1.1,0,2.3-0.4,3.1-1.3c0.9-0.9,1.3-2,1.3-3.1c0-1.1-0.4-2.3-1.3-3.1C8.2,57.2,7,56.8,5.9,56.8z"/>
			<path class="st0" d="M14.6,51.1c0-0.8-0.3-1.5-0.9-2.1c-0.6-0.6-1.3-0.9-2.1-0.9c-0.8,0-1.5,0.3-2.1,0.9
				c-0.6,0.6-0.9,1.3-0.9,2.1c0,0.8,0.3,1.5,0.9,2.1c0.6,0.6,1.3,0.9,2.1,0.9c0.8,0,1.5-0.3,2.1-0.9C14.3,52.6,14.6,51.9,14.6,51.1z
				"/>
		</g>
	</g>
	<rect class="st1" width="72" height="72"/>
</g>
</svg>
