<?xml version="1.0" encoding="utf-8"?>
<!-- Generator: Adobe Illustrator 23.1.1, SVG Export Plug-In . SVG Version: 6.00 Build 0)  -->
<svg version="1.1" id="Layer_1" xmlns="http://www.w3.org/2000/svg" xmlns:xlink="http://www.w3.org/1999/xlink" x="0px" y="0px"
	 viewBox="0 0 72 72" style="enable-background:new 0 0 72 72;" xml:space="preserve">
<style type="text/css">
	.st0{fill:#010101;}
	.st1{fill:none;}
</style>
<g>
	<g>
		<g>
			<path class="st0" d="M32.5,54h5.9v-3.9h-5.9c-0.8-5.5-5.2-9.9-10.7-10.7v-5.9H18v5.9c-5.5,0.8-9.9,5.2-10.7,10.7H1.3V54h5.9
				c0.8,5.5,5.2,9.9,10.7,10.7v5.9h3.9v-5.9C27.3,63.9,31.7,59.5,32.5,54z M28.6,50.2h-6.8v-6.8C25.2,44.1,27.9,46.8,28.6,50.2z
				 M18,43.4v6.8h-6.8C11.9,46.8,14.6,44.1,18,43.4z M11.2,54H18v6.8C14.6,60.1,11.9,57.4,11.2,54z M21.8,60.8V54h6.8
				C27.9,57.4,25.2,60.1,21.8,60.8z"/>
			<path class="st0" d="M44.1,29.8l-3.8,6.6l3.3,1.9l3.8-6.6c1.5,0.6,3,0.9,4.7,0.9c7.1,0,12.8-5.7,12.8-12.8c0-4.1-1.9-7.7-4.9-10
				l3.8-6.5l-3.3-1.9L56.7,8c-1.4-0.6-3-0.9-4.6-0.9c-7.1,0-12.8,5.7-12.8,12.8C39.3,23.9,41.2,27.5,44.1,29.8z M61,19.9
				c0,4.9-4,8.9-8.9,8.9c-1,0-1.9-0.2-2.8-0.4l8.7-15.1C59.9,14.9,61,17.3,61,19.9z M52.1,11c0.9,0,1.8,0.1,2.6,0.4L46,26.4
				c-1.8-1.6-2.9-4-2.9-6.5C43.2,15,47.2,11,52.1,11z"/>
			<polygon class="st0" points="34.1,19.7 8.5,19.7 34.5,4.8 32.6,1.4 1.3,19.4 1.3,23.5 34.1,23.5 			"/>
			<polygon class="st0" points="56.2,66.8 56.2,45 52.3,45 52.3,66.8 37.9,66.8 37.9,70.7 70.7,70.7 70.7,66.8 			"/>
		</g>
	</g>
	<rect class="st1" width="72" height="72"/>
</g>
</svg>
