<?xml version="1.0" encoding="utf-8"?>
<!-- Generator: Adobe Illustrator 23.1.1, SVG Export Plug-In . SVG Version: 6.00 Build 0)  -->
<svg version="1.1" id="Layer_1" xmlns="http://www.w3.org/2000/svg" xmlns:xlink="http://www.w3.org/1999/xlink" x="0px" y="0px"
	 viewBox="0 0 72 72" style="enable-background:new 0 0 72 72;" xml:space="preserve">
<style type="text/css">
	.st0{fill:#010101;}
	.st1{fill:none;}
</style>
<g>
	<g>
		<g>
			<g>
				<rect x="25.8" y="24.7" class="st0" width="20.8" height="4.8"/>
				<g>
					<polygon class="st0" points="36.8,35.5 36.8,40.3 25.8,40.4 25.8,35.5 					"/>
				</g>
			</g>
			<g>
				<polygon class="st0" points="41.5,13.9 41.5,18.7 25.8,18.7 25.8,13.9 				"/>
			</g>
			<g>
				<polygon class="st0" points="41.5,46.4 41.5,51.2 25.8,51.2 25.8,46.4 				"/>
			</g>
		</g>
		<g>
			<g>
				<path class="st0" d="M61.3,1.5c-0.2-0.1-0.3-0.1-0.5-0.1H29.5c-6,0-11,4.9-11,11v45.5H3.3c-1,0-1.8,0.8-1.8,1.8
					c0,6,4.9,11,11,11h5.3h24.7c6,0,11-4.9,11-11V14.2h15.3c1,0,1.8-0.8,1.8-1.8C70.5,6.5,66.6,2.1,61.3,1.5z M12.5,67.1
					c-3.4,0-6.4-2.4-7.2-5.6h26.4c0.3,2.1,1.3,4.1,2.7,5.6H12.5z M49.9,12.4v47.3c0,4.1-3.3,7.4-7.4,7.4s-7.4-3.3-7.4-7.4
					c0-1-0.8-1.8-1.8-1.8H22.2V12.4c0-4.1,3.3-7.4,7.4-7.4h23.2C51,7,49.9,9.5,49.9,12.4z"/>
			</g>
		</g>
	</g>
	<rect class="st1" width="72" height="72"/>
</g>
</svg>
