<?xml version="1.0" encoding="utf-8"?>
<!-- Generator: Adobe Illustrator 23.1.1, SVG Export Plug-In . SVG Version: 6.00 Build 0)  -->
<svg version="1.1" id="Layer_1" xmlns="http://www.w3.org/2000/svg" xmlns:xlink="http://www.w3.org/1999/xlink" x="0px" y="0px"
	 viewBox="0 0 72 72" style="enable-background:new 0 0 72 72;" xml:space="preserve">
<style type="text/css">
	.st0{fill:#010101;}
	.st1{fill:none;}
</style>
<g>
	<g>
		<g>
			<path class="st0" d="M54,23.8c0-0.6-0.3-1.1-0.7-1.5L29,2c-0.7-0.6-1.8-0.6-2.5,0L2.3,22.4c-0.4,0.4-0.7,0.9-0.7,1.5
				s0.3,1.1,0.7,1.5l24.3,20.3c0.4,0.3,0.8,0.4,1.2,0.4c0.4,0,0.9-0.2,1.2-0.4l24.3-20.3C53.8,24.9,54,24.4,54,23.8z M35.9,34.9
				l-5.1-4.3l5.1-4.3l5.1,4.3L35.9,34.9z M27.8,28.1l-5.1-4.3l5.1-4.3l5.1,4.3L27.8,28.1z M14.6,30.6l5.1-4.3l5.1,4.3l-5.1,4.3
				L14.6,30.6z M19.7,12.8l5.1,4.3l-5.1,4.3l-5.1-4.3L19.7,12.8z M30.8,17.1l5.1-4.3l5.1,4.3l-5.1,4.3L30.8,17.1z M27.8,6l5.1,4.3
				l-5.1,4.3l-5.1-4.3L27.8,6z M11.6,19.6l5.1,4.3l-5.1,4.3l-5.1-4.3L11.6,19.6z M27.8,41.7l-5.1-4.3l5.1-4.3l5.1,4.3L27.8,41.7z
				 M44,28.1l-5.1-4.3l5.1-4.3l5.1,4.3L44,28.1z"/>
			<path class="st0" d="M65.6,41.9c-3.2-3.2-7.4-4.9-11.8-4.9c-4.5,0-8.7,1.7-11.8,4.9c-3.2,3.2-4.9,7.4-4.9,11.8s1.7,8.7,4.9,11.8
				c3.2,3.2,7.4,4.9,11.8,4.9c4.5,0,8.7-1.7,11.8-4.9c3.2-3.2,4.9-7.4,4.9-11.8C70.5,49.3,68.7,45.1,65.6,41.9z M62.8,62.8
				c-2.4,2.4-5.7,3.8-9.1,3.8c-3.4,0-6.7-1.3-9.1-3.8c-2.4-2.4-3.8-5.7-3.8-9.1s1.3-6.7,3.8-9.1c2.4-2.4,5.7-3.8,9.1-3.8
				c3.4,0,6.7,1.3,9.1,3.8c2.4,2.4,3.8,5.7,3.8,9.1S65.3,60.4,62.8,62.8z"/>
			<path class="st0" d="M57.7,51.8h-2v-2c0-1.1-0.9-1.9-1.9-1.9c-1.1,0-1.9,0.9-1.9,1.9v2h-2c-1.1,0-1.9,0.9-1.9,1.9
				s0.9,1.9,1.9,1.9h2v2c0,1.1,0.9,1.9,1.9,1.9c1.1,0,1.9-0.9,1.9-1.9v-2h2c1.1,0,1.9-0.9,1.9-1.9S58.8,51.8,57.7,51.8z"/>
		</g>
	</g>
	<rect class="st1" width="72" height="72"/>
</g>
</svg>
