<?xml version="1.0" encoding="utf-8"?>
<!-- Generator: Adobe Illustrator 23.1.1, SVG Export Plug-In . SVG Version: 6.00 Build 0)  -->
<svg version="1.1" id="Layer_1" xmlns="http://www.w3.org/2000/svg" xmlns:xlink="http://www.w3.org/1999/xlink" x="0px" y="0px"
	 viewBox="0 0 72 72" style="enable-background:new 0 0 72 72;" xml:space="preserve">
<style type="text/css">
	.st0{fill:#010101;}
	.st1{fill:none;}
</style>
<g>
	<g>
		<g>
			<path class="st0" d="M57.3,53.6h-5.4c-0.8-2.3-3-3.9-5.5-3.9s-4.7,1.7-5.5,3.9H14.3c-1.1,0-1.9,0.9-1.9,1.9
				c0,1.1,0.9,1.9,1.9,1.9h26.6c0.8,2.3,3,3.9,5.5,3.9s4.7-1.7,5.5-3.9h5.4c1.1,0,1.9-0.9,1.9-1.9C59.2,54.5,58.4,53.6,57.3,53.6z"
				/>
			<path class="st0" d="M57.3,41.1H34.6c-0.8-2.3-3-3.9-5.5-3.9s-4.7,1.7-5.5,3.9h-9.2c-1.1,0-1.9,0.9-1.9,1.9s0.9,1.9,1.9,1.9h9.2
				c0.8,2.3,3,3.9,5.5,3.9s4.7-1.7,5.5-3.9h22.7c1.1,0,1.9-0.9,1.9-1.9S58.4,41.1,57.3,41.1z"/>
			<path class="st0" d="M57.3,28.5H41.6c-0.8-2.3-3-3.9-5.5-3.9s-4.7,1.7-5.5,3.9H14.3c-1.1,0-1.9,0.9-1.9,1.9
				c0,1.1,0.9,1.9,1.9,1.9h16.3c0.8,2.3,3,3.9,5.5,3.9s4.7-1.7,5.5-3.9h15.7c1.1,0,1.9-0.9,1.9-1.9C59.2,29.4,58.4,28.5,57.3,28.5z"
				/>
			<path class="st0" d="M65.1,8.8H50.2c-0.5-1.3-1.8-2.2-3.3-2.2h-4.2c-0.8-2.9-3.5-5.1-6.7-5.1s-5.9,2.2-6.7,5.1H25
				c-1.5,0-2.8,0.9-3.3,2.2H6.9c-3,0-5.4,2.4-5.4,5.4v50.9c0,3,2.4,5.4,5.4,5.4h58.2c3,0,5.4-2.4,5.4-5.4V14.3
				C70.5,11.3,68.1,8.8,65.1,8.8z M36,5c1.9,0,3.5,1.6,3.5,3.5c0,1.9-1.6,3.5-3.5,3.5c-1.9,0-3.5-1.6-3.5-3.5C32.5,6.6,34.1,5,36,5z
				 M66.6,65.1c0,0.9-0.7,1.6-1.6,1.6H6.9c-0.8,0-1.6-0.7-1.6-1.6V14.3c0-0.9,0.7-1.6,1.6-1.6h14.6v2.4c0,2,1.6,3.6,3.6,3.6h21.8
				c2,0,3.6-1.6,3.6-3.6v-2.4h14.7c0.9,0,1.6,0.7,1.6,1.6V65.1z"/>
		</g>
	</g>
	<rect class="st1" width="72" height="72"/>
</g>
</svg>
