<?xml version="1.0" encoding="utf-8"?>
<!-- Generator: Adobe Illustrator 23.1.1, SVG Export Plug-In . SVG Version: 6.00 Build 0)  -->
<svg version="1.1" id="Layer_1" xmlns="http://www.w3.org/2000/svg" xmlns:xlink="http://www.w3.org/1999/xlink" x="0px" y="0px"
	 viewBox="0 0 72 72" style="enable-background:new 0 0 72 72;" xml:space="preserve">
<style type="text/css">
	.st0{fill:#010101;}
	.st1{fill:none;}
</style>
<g>
	<g>
		<g>
			<path class="st0" d="M41.6,23.6C41.6,23.6,41.6,23.6,41.6,23.6L23,12.9c-0.6-0.3-1.3-0.3-1.9,0L2.6,23.6c0,0,0,0,0,0
				c-0.6,0.3-1,1-1,1.7v21.4c0,0.7,0.4,1.3,1,1.7L21.1,59c0,0,0,0,0,0c0.3,0.2,0.6,0.3,1,0.3c0.3,0,0.7-0.1,1-0.3l18.5-10.7
				c0.6-0.3,1-1,1-1.7V25.2C42.5,24.6,42.2,23.9,41.6,23.6z M22.1,16.8l14.7,8.5l-6.9,4l-7.8,4.5l-4.8-2.8l-9.9-5.7L22.1,16.8z"/>
			<path class="st0" d="M64.7,1.3h-8c-3.3,0-6,2.7-6,6v57.3c0,3.3,2.7,6,6,6h8c3.3,0,6-2.7,6-6V7.3C70.7,4,68,1.3,64.7,1.3z
				 M54.6,31.4h12.3v9.2H54.6V31.4z M66.8,27.5H54.6v-9.2h12.3V27.5z M54.6,44.5h12.3v9.2H54.6V44.5z M56.7,5.2h8
				c1.2,0,2.1,1,2.1,2.1v7.1H54.6V7.3C54.6,6.2,55.5,5.2,56.7,5.2z M64.7,66.8h-8c-1.2,0-2.1-1-2.1-2.1v-7.1h12.3v7.1
				C66.8,65.8,65.9,66.8,64.7,66.8z"/>
		</g>
	</g>
	<rect class="st1" width="72" height="72"/>
</g>
</svg>
