<?xml version="1.0" encoding="utf-8"?>
<!-- Generator: Adobe Illustrator 23.1.1, SVG Export Plug-In . SVG Version: 6.00 Build 0)  -->
<svg version="1.1" id="Layer_1" xmlns="http://www.w3.org/2000/svg" xmlns:xlink="http://www.w3.org/1999/xlink" x="0px" y="0px"
	 viewBox="0 0 72 72" style="enable-background:new 0 0 72 72;" xml:space="preserve">
<style type="text/css">
	.st0{fill:#010101;}
	.st1{fill:none;}
</style>
<g>
	<g>
		<g>
			<path class="st0" d="M66.7,48.6V10.7c0-5.1-4.1-9.2-9.2-9.2c-5.1,0-9.2,4-9.2,9v38c-2.3,2.3-3.7,5.7-3.7,9.2
				c0,7.1,5.8,12.9,12.9,12.9c7.1,0,12.9-5.8,12.9-12.9C70.5,54.2,69,51,66.7,48.6z M57.6,66.9c-5.1,0-9.2-4.1-9.2-9.2
				c0-2.4,1-4.9,2.6-6.6l1-1.1v-1.5v-38c0-3,2.4-5.4,5.5-5.4c3,0,5.5,2.5,5.5,5.5v37.9v1.5l1,1.1c1.7,1.8,2.7,4.1,2.7,6.5
				C66.8,62.8,62.7,66.9,57.6,66.9z"/>
			<path class="st0" d="M59.4,52.4c0-8.6,0-17.9,0-27.9h-3.7c0,10,0,19.3,0,27.9c-1.8,1.1-3.7,2.3-3.7,5.3c0,3,2.5,5.5,5.5,5.5
				c3,0,5.5-2.5,5.5-5.5C63.1,54.7,61.3,53.5,59.4,52.4z"/>
			<path class="st0" d="M41.7,47l-2.3-1.8l-0.2-2.6l-4-3c0.3-2.1-0.5-4.4-2.4-5.8c-0.3-0.3-0.7-0.5-1-0.6L24.5,2.6
				c-0.1-0.4-0.7-0.9-1.2-0.9c-2.2-0.2-4.4,0.5-6.2,1.9c-0.4,0.3-0.6,1-0.4,1.4v0l1.3,5.4c-0.1,0-0.3,0-0.4,0
				c-3.4,0.5-5.7,3.6-5.2,7c0.1,0.9,0.4,1.7,0.9,2.4l-9.3,35c-1.5,0.8-2.5,1.8-2.5,2.9v8.4c0,2.4,4.5,4.4,10.1,4.4
				c5.6,0,10.1-2,10.1-4.4v-8.4c0-2.3-3.9-4.1-8.8-4.4l8.1-30.7l3,12.8c-1.8,2.7-1.2,6.3,1.4,8.3c1.9,1.5,4.4,1.6,6.5,0.6l3.9,3
				l2.4-0.4l2.4,1.8c-0.1,0.5,0,0.9,0.2,1.4c0.6,1,1.8,1.3,2.8,0.7c1-0.6,1.3-1.8,0.7-2.8C43.7,47,42.6,46.6,41.7,47z M18.8,19.1
				c-1.4,0.2-2.7-0.8-2.9-2.2c-0.2-1.4,0.8-2.7,2.2-2.9c1.4-0.2,2.7,0.8,2.9,2.2C21.2,17.6,20.2,18.9,18.8,19.1z M29.4,41.3
				c-1.4,0.2-2.7-0.8-2.9-2.2c-0.2-1.4,0.8-2.7,2.2-2.8c1.4-0.2,2.7,0.8,2.9,2.2C31.8,39.9,30.8,41.2,29.4,41.3z"/>
		</g>
	</g>
	<rect x="0" class="st1" width="72" height="72"/>
</g>
</svg>
