<?xml version="1.0" encoding="utf-8"?>
<!-- Generator: Adobe Illustrator 23.1.1, SVG Export Plug-In . SVG Version: 6.00 Build 0)  -->
<svg version="1.1" id="Layer_1" xmlns="http://www.w3.org/2000/svg" xmlns:xlink="http://www.w3.org/1999/xlink" x="0px" y="0px"
	 viewBox="0 0 72 72" style="enable-background:new 0 0 72 72;" xml:space="preserve">
<style type="text/css">
	.st0{fill:#010101;}
	.st1{fill:none;}
</style>
<g>
	<g>
		<path class="st0" d="M54.5,11.5v17c0,2.3-1.8,4.1-4.1,4.1H21.6c-2.3,0-4.1-1.8-4.1-4.1v-17c0-2.3,1.8-4.1,4.1-4.1l4.4,0
			c0.9,0,1.5-0.6,1.6-1.2l0.7-2.6c0.4-1.4,1.6-2.4,3.1-2.4h8.9c1.5,0,2.7,1,3.1,2.4l0.7,2.6c0.2,0.6,0.7,1.2,1.6,1.2h0l4.6,0
			C52.6,7.4,54.5,9.3,54.5,11.5z M49.2,10.5c-1.2,0-2.2,1-2.2,2.2c0,1.2,1,2.2,2.2,2.2c1.2,0,2.2-1,2.2-2.2
			C51.4,11.5,50.4,10.5,49.2,10.5z M45.6,20.1c0-5.3-4.3-9.6-9.6-9.6c-5.3,0-9.6,4.3-9.6,9.6c0,5.3,4.3,9.6,9.6,9.6
			C41.3,29.7,45.6,25.4,45.6,20.1z M36,14.1c-3.3,0-5.9,2.7-5.9,5.9c0,3.3,2.7,5.9,5.9,5.9c3.3,0,5.9-2.7,5.9-5.9
			C41.9,16.8,39.3,14.1,36,14.1z"/>
		<g>
			<g>
				<rect x="13.7" y="50.9" class="st0" width="56.9" height="5.7"/>
				<path class="st0" d="M9.9,56.8c0,0.6-0.5,1.2-1.2,1.2H2.6c-0.6,0-1.2-0.5-1.2-1.2v-6.1c0-0.6,0.5-1.2,1.2-1.2h6.1
					c0.6,0,1.2,0.5,1.2,1.2V56.8z"/>
				<g>
					<rect x="13.7" y="63" class="st0" width="25.7" height="5.7"/>
					<path class="st0" d="M9.9,68.9c0,0.6-0.5,1.2-1.2,1.2H2.6c-0.6,0-1.2-0.5-1.2-1.2v-6.1c0-0.6,0.5-1.2,1.2-1.2h6.1
						c0.6,0,1.2,0.5,1.2,1.2V68.9z"/>
				</g>
			</g>
			<g>
				<rect x="13.7" y="38.8" class="st0" width="40.8" height="5.7"/>
				<path class="st0" d="M9.9,44.7c0,0.6-0.5,1.2-1.2,1.2H2.6c-0.6,0-1.2-0.5-1.2-1.2v-6.1c0-0.6,0.5-1.2,1.2-1.2h6.1
					c0.6,0,1.2,0.5,1.2,1.2V44.7z"/>
			</g>
		</g>
	</g>
	<rect class="st1" width="72" height="72"/>
</g>
</svg>
