<?xml version="1.0" encoding="utf-8"?>
<!-- Generator: Adobe Illustrator 23.1.1, SVG Export Plug-In . SVG Version: 6.00 Build 0)  -->
<svg version="1.1" id="Layer_1" xmlns="http://www.w3.org/2000/svg" xmlns:xlink="http://www.w3.org/1999/xlink" x="0px" y="0px"
	 viewBox="0 0 72 72" style="enable-background:new 0 0 72 72;" xml:space="preserve">
<style type="text/css">
	.st0{fill:#010101;}
	.st1{fill:none;}
</style>
<g>
	<g>
		<g>
			<path class="st0" d="M69.3,64.9h-9.2v-4c0-0.8-0.6-1.4-1.4-1.4c-0.8,0-1.4,0.6-1.4,1.4v4H46.9v-4c0-0.8-0.6-1.4-1.4-1.4
				c-0.8,0-1.4,0.6-1.4,1.4v4H33.6v-4c0-0.8-0.6-1.4-1.4-1.4c-0.8,0-1.4,0.6-1.4,1.4v4H20.3v-4c0-0.8-0.6-1.4-1.4-1.4
				c-0.8,0-1.4,0.6-1.4,1.4v4H7V52.8l12-9.7l11.4,5.5c1.1,0.5,2.3,0.2,3.1-0.7L58,18.6l12.6-4.8V8.4L55.6,14
				c-0.4,0.2-0.8,0.4-1.1,0.8L30.9,43l-11.1-5.3c-0.9-0.4-2-0.3-2.7,0.3L7,46.2V35.8l14.3-19.5l15.4,14.4l3.3-4L22.7,10.6
				c-0.5-0.5-1.3-0.8-2-0.7c-0.7,0.1-1.4,0.4-1.8,1L7,27.1V2.8C7,2,6.4,1.3,5.6,1.3H2.7C1.9,1.3,1.3,2,1.3,2.8v65.5c0,0,0,0,0,0v1
				c0,0.8,0.6,1.4,1.4,1.4h66.6c0.8,0,1.4-0.6,1.4-1.4v-2.9C70.7,65.6,70.1,64.9,69.3,64.9z"/>
			<path class="st0" d="M48.8,35l-3.3,4l5.6,5.3c0.5,0.4,1.1,0.7,1.8,0.7c0.1,0,0.3,0,0.4,0l17.3-2.7V37l-16.9,2.6L48.8,35z"/>
		</g>
	</g>
	<rect x="0" y="0" class="st1" width="72" height="72"/>
</g>
</svg>
