<?xml version="1.0" encoding="utf-8"?>
<!-- Generator: Adobe Illustrator 23.1.1, SVG Export Plug-In . SVG Version: 6.00 Build 0)  -->
<svg version="1.1" id="Layer_1" xmlns="http://www.w3.org/2000/svg" xmlns:xlink="http://www.w3.org/1999/xlink" x="0px" y="0px"
	 viewBox="0 0 72 72" style="enable-background:new 0 0 72 72;" xml:space="preserve">
<style type="text/css">
	.st0{fill:#010101;}
	.st1{fill:none;}
</style>
<g>
	<g>
		<path class="st0" d="M62.3,15.5c-3.2,0-6.2,1.9-7.5,4.9l-1.7,3.9c-1.1,2.6-3.1,4.6-5.6,5.8c-0.6-1.2-1.4-2.3-2.4-3.2l4.3-9.7
			c0.6-1.4,1-3,1-4.5c0-6.1-5-11.1-11.2-11.1H23.6c-4.5,0-8.2,3.7-8.2,8.2c0,3.2,1.9,6.2,4.9,7.5l3.9,1.8c2.6,1.1,4.6,3.1,5.8,5.6
			c-1.2,0.6-2.3,1.4-3.2,2.4l-9.7-4.3c-1.4-0.6-3-1-4.5-1c-6.1,0-11.1,5-11.1,11.1v15.5c0,4.5,3.7,8.2,8.2,8.2
			c3.2,0,6.2-1.9,7.5-4.9l1.7-3.9c1.1-2.6,3.2-4.6,5.6-5.8c0.6,1.2,1.4,2.3,2.4,3.2l-4.3,9.7c-0.6,1.4-1,3-1,4.5
			c0,6.1,5,11.2,11.2,11.2h15.5c4.5,0,8.2-3.7,8.2-8.2c0-3.2-1.9-6.2-4.9-7.5l-3.9-1.7c-2.6-1.1-4.6-3.1-5.8-5.6
			c1.2-0.6,2.3-1.4,3.2-2.4l9.7,4.3c1.4,0.6,3,1,4.5,1c6.1,0,11.2-5,11.2-11.2V23.6C70.5,19.1,66.8,15.5,62.3,15.5z M31.2,36
			c0-2.7,2.2-4.8,4.8-4.8c2.7,0,4.8,2.2,4.8,4.8c0,2.7-2.2,4.8-4.8,4.8C33.3,40.8,31.2,38.7,31.2,36z M25.8,15.4l-3.9-1.8
			c-1.6-0.7-2.6-2.2-2.6-3.9c0-2.4,1.9-4.3,4.3-4.3h15.5c4,0,7.3,3.3,7.3,7.3c0,1-0.2,2-0.6,3l-4,8.9c-1.8-0.9-3.8-1.4-5.9-1.4
			c-0.8,0-1.5,0.1-2.3,0.2C32.2,19.8,29.4,17,25.8,15.4z M15.4,46.2l-1.7,3.9c-0.7,1.6-2.2,2.6-4,2.6c-2.4,0-4.3-1.9-4.3-4.3V32.8
			c0-4,3.3-7.3,7.3-7.3c1,0,2,0.2,3,0.6l8.9,4c-0.9,1.8-1.4,3.8-1.4,5.9c0,0.8,0.1,1.5,0.2,2.3C19.8,39.8,17,42.6,15.4,46.2z
			 M46.2,56.6l3.9,1.7c1.6,0.7,2.6,2.2,2.6,4c0,2.4-1.9,4.3-4.3,4.3H32.8c-4,0-7.3-3.3-7.3-7.3c0-1,0.2-2,0.6-3l4-8.9
			c1.8,0.9,3.8,1.4,5.9,1.4c0.8,0,1.5-0.1,2.3-0.2C39.8,52.2,42.6,55,46.2,56.6z M66.6,39.2c0,4-3.3,7.3-7.3,7.3c-1,0-2-0.2-3-0.6
			l-8.9-4c0.9-1.8,1.4-3.8,1.4-5.9c0-0.8-0.1-1.5-0.2-2.3c3.5-1.6,6.3-4.4,7.9-7.9l1.8-3.9c0.7-1.6,2.2-2.6,3.9-2.6
			c2.4,0,4.3,1.9,4.3,4.3V39.2z"/>
	</g>
	<rect class="st1" width="72" height="72"/>
</g>
</svg>
