<?xml version="1.0" encoding="utf-8"?>
<!-- Generator: Adobe Illustrator 23.1.1, SVG Export Plug-In . SVG Version: 6.00 Build 0)  -->
<svg version="1.1" id="Layer_1" xmlns="http://www.w3.org/2000/svg" xmlns:xlink="http://www.w3.org/1999/xlink" x="0px" y="0px"
	 viewBox="0 0 72 72" style="enable-background:new 0 0 72 72;" xml:space="preserve">
<style type="text/css">
	.st0{fill:#010101;}
	.st1{fill:none;}
</style>
<g>
	<g>
		<g>
			<path class="st0" d="M18.8,52.9c-2.1,0-3.8,1.7-3.8,3.8c0,2.1,1.7,3.8,3.8,3.8c2.1,0,3.8-1.7,3.8-3.8
				C22.6,54.7,20.9,52.9,18.8,52.9z"/>
			<path class="st0" d="M35.9,57.8c-2.1,0-3.8,1.7-3.8,3.8c0,2.1,1.7,3.8,3.8,3.8c2.1,0,3.8-1.7,3.8-3.8
				C39.8,59.5,38.1,57.8,35.9,57.8z"/>
			<path class="st0" d="M47,50.9c-2.1,0-3.8,1.7-3.8,3.8c0,2.1,1.7,3.8,3.8,3.8c2.1,0,3.8-1.7,3.8-3.8C50.8,52.6,49.1,50.9,47,50.9z
				"/>
			<path class="st0" d="M69.4,13.2c-0.7-0.3-1.5-0.2-2.1,0.3c-0.1,0-3.4,3.1-9,6.4c-0.3-0.1-0.6-0.1-0.9-0.1c-1.7,0-3.1,1.1-3.6,2.6
				c-1.8,0.9-3.8,1.8-5.9,2.6c0.4-0.6,0.6-1.3,0.6-2c0-2.1-1.7-3.8-3.8-3.8c-2.1,0-3.8,1.7-3.8,3.8c0,1.7,1,3.1,2.5,3.6
				c-3,0.9-5.9,1.5-8.8,1.8c-0.6-0.4-1.4-0.7-2.2-0.7c-1,0-1.9,0.4-2.6,1c-4.6,0.1-9-0.6-13.3-1.9c0,0,0-0.1,0-0.1
				c0-2.1-1.7-3.8-3.8-3.8c-1.1,0-2.1,0.5-2.9,1.3c-1.8-0.9-3.6-1.9-5.3-3c-0.6-0.4-1.3-0.4-2-0.1s-1,1-1,1.7v19.5
				c0,0.7,0.3,1.3,0.9,1.6c1.9,1.2,3.9,2.3,5.9,3.3c-0.4,0.6-0.6,1.3-0.6,2c0,2.1,1.7,3.8,3.8,3.8c1.9,0,3.4-1.3,3.8-3.1
				c3.1,0.9,6.3,1.6,9.6,1.9c0,0.1,0,0.3,0,0.4c0,2.1,1.7,3.8,3.8,3.8c2.1,0,3.8-1.7,3.8-3.8c0-0.1,0-0.2,0-0.4
				c5.5-0.4,11.1-1.6,16.7-3.7c2.9-1.1,5.6-2.4,8-3.7c0.4,1.7,1.9,3,3.8,3c2.1,0,3.8-1.7,3.8-3.8c0-1.2-0.5-2.2-1.3-2.9
				c4-2.7,6.4-4.8,6.6-5c0.4-0.4,0.6-0.9,0.6-1.4V15C70.6,14.2,70.1,13.6,69.4,13.2z M66.7,33.6c-2.1,1.8-9.3,7.4-19.1,11.1
				c-15.2,5.8-29.4,4.6-42.4-3.4v-15c1.2,0.7,2.4,1.3,3.7,1.9c0.5,1.5,1.9,2.5,3.6,2.5c0.6,0,1.2-0.2,1.8-0.4
				c4.6,1.5,9.4,2.3,14.3,2.4c0.4,1.6,1.9,2.9,3.7,2.9c2,0,3.6-1.5,3.8-3.3c4.3-0.6,8.6-1.7,13-3.4c2-0.8,3.8-1.6,5.6-2.4
				c0.7,0.7,1.7,1.2,2.8,1.2c2.1,0,3.8-1.7,3.8-3.8c0-0.3,0-0.6-0.1-0.9c2.2-1.4,4.1-2.7,5.5-3.8V33.6z"/>
			<path class="st0" d="M24.5,25.4c2.1,0,3.8-1.7,3.8-3.8c0-2.1-1.7-3.8-3.8-3.8c-2.1,0-3.8,1.7-3.8,3.8
				C20.6,23.7,22.3,25.4,24.5,25.4z"/>
			<path class="st0" d="M9.7,19.1c2.1,0,3.8-1.7,3.8-3.8c0-2.1-1.7-3.8-3.8-3.8c-2.1,0-3.8,1.7-3.8,3.8C5.9,17.4,7.6,19.1,9.7,19.1z
				"/>
			<path class="st0" d="M62.3,14.3c2.1,0,3.8-1.7,3.8-3.8c0-2.1-1.7-3.8-3.8-3.8c-2.1,0-3.8,1.7-3.8,3.8
				C58.5,12.6,60.2,14.3,62.3,14.3z"/>
			<path class="st0" d="M37.9,39.3c-2.1,0-3.8,1.7-3.8,3.8c0,0.2,0,0.4,0.1,0.6c0.8,0.7,2.2,1.2,3.8,1.2c1.6,0,3-0.5,3.8-1.2
				c0-0.2,0.1-0.4,0.1-0.6C41.7,41.1,40,39.3,37.9,39.3z"/>
			<path class="st0" d="M48.9,32.4c-2.1,0-3.8,1.7-3.8,3.8c0,0.2,0,0.4,0,0.6c0.8,0.7,2.2,1.2,3.8,1.2c1.6,0,3-0.5,3.8-1.2
				c0-0.2,0-0.4,0-0.6C52.8,34.2,51,32.4,48.9,32.4z"/>
			<path class="st0" d="M20.7,34.5c-2.1,0-3.8,1.7-3.8,3.8c0,0.2,0,0.4,0.1,0.6c0.8,0.7,2.2,1.2,3.8,1.2c1.6,0,3-0.5,3.8-1.2
				c0-0.2,0.1-0.4,0.1-0.6C24.5,36.2,22.8,34.5,20.7,34.5z"/>
		</g>
	</g>
	<rect x="0" class="st1" width="72" height="72"/>
</g>
</svg>
