<svg id="Layer_1" data-name="Layer 1" xmlns="http://www.w3.org/2000/svg" viewBox="0 0 48 48.1"><path d="M45.6,21.6a2.5,2.5,0,0,1,2.5,2.5h0a2.6,2.6,0,0,1-2.5,2.6H32.7L19.6,48.1H15.5l6.7-21.5H8.2L3.7,31.2H.1l2.3-7.1L.2,17H3.7l4.5,4.5h14L15.5,0h4.2l13,21.5Z" transform="translate(-0.1 0)"/><path d="M40.4,29.3A17.3,17.3,0,0,1,27.2,40.9l-1.7,2.8A19.7,19.7,0,0,0,43,29.3Z" transform="translate(-0.1 0)"/><path d="M27.2,7.3A17.2,17.2,0,0,1,40.3,18.9H43A19.6,19.6,0,0,0,25.5,4.6Z" transform="translate(-0.1 0)"/><path d="M8.3,17.8a16.9,16.9,0,0,1,7.3-8.5l-.8-2.5a20,20,0,0,0-8.5,9Z" transform="translate(-0.1 0)"/><path d="M15.6,38.9a17.6,17.6,0,0,1-7.4-8.5L6.3,32.3a19.7,19.7,0,0,0,8.5,9.1Z" transform="translate(-0.1 0)"/></svg>