<svg id="Layer_1" data-name="Layer 1" xmlns="http://www.w3.org/2000/svg" viewBox="0 0 48.1 47.8"><path d="M19.9,42.3h0a2.9,2.9,0,0,0,1.8-.3,2,2,0,0,0,.8-1l7.2-27.3c.2-.8-.7.1-1.5-.2l-2.7-1c-.4-.2-.1-1.6-.5-1.4a1.8,1.8,0,0,0-.7,1L17,39.4a1.7,1.7,0,0,0,.2,1.2,1,1,0,0,1,.1.3,3.4,3.4,0,0,0,2.6,1.4" transform="translate(0 -0.3)"/><path d="M28.3,2.6a1,1,0,0,1,.3-1A6,6,0,0,1,32.9.3a1,1,0,0,1,.8.6l7.7,33.3a1.7,1.7,0,0,1-.1,1.2c0,.1-.1.2-.2.3S40,34.5,39,34.6l-1.6.9c-.6,0,0,1.6-.6,1.4a1.6,1.6,0,0,1-.8-1L28.3,2.6Z" transform="translate(0 -0.3)"/><path d="M27.1,6.3A4.4,4.4,0,0,1,32,10a4.4,4.4,0,0,1-3.7,4.9,4.3,4.3,0,0,1-4.8-3.7,4.2,4.2,0,0,1,3.6-4.9m.4,2.5a1.9,1.9,0,0,0-1.6,2A2,2,0,0,0,28,12.4a2,2,0,0,0,1.5-2.1,1.9,1.9,0,0,0-2-1.5" transform="translate(0 -0.3)"/><path d="M27.2,45c0,1.7-3.1,3.1-7,3.1s-7-1.4-7-3.1V39.2c0-1.7,3.2-3.1,7-3.1s7,1.4,7,3.1Z" transform="translate(0 -0.3)"/><path d="M47.1,47.9a1.3,1.3,0,0,1-1.7-.9,1.7,1.7,0,0,1,0-1l-1.3-1.6H42.4l-2.1-2.7a4.1,4.1,0,0,1-4.2-1.5,4.3,4.3,0,1,1,6.7-5.3,4.4,4.4,0,0,1,.6,4.3l2.1,2.7-.3,1.8,1.3,1.6a1.4,1.4,0,0,1,1.6,1,1.4,1.4,0,0,1-1,1.7M39.7,35.7a1.8,1.8,0,0,0-2,1.5,1.8,1.8,0,1,0,3.5.5,1.8,1.8,0,0,0-1.5-2" transform="translate(0 -0.3)"/><path d="M8.6,6a4.3,4.3,0,1,1,0,8.5,4.3,4.3,0,0,1-4.3-4.2A4.3,4.3,0,0,1,8.6,6" transform="translate(0 -0.3)"/><path d="M24.7,18.5A2.1,2.1,0,0,0,22.2,17l-7,1.8L9,16.3a2.2,2.2,0,0,0-2.7,1.2,2.1,2.1,0,0,0,1.2,2.7l6.9,2.6.7.2h.5L23.2,21a2,2,0,0,0,1.5-2.5" transform="translate(0 -0.3)"/><path d="M7.5,25.7l.5.6.4.2,7.3,2.8a2.1,2.1,0,0,0,2.7-1.2,2,2,0,0,0-1.2-2.6l-6.7-2.6" transform="translate(0 -0.3)"/><path d="M10.8,33.8V19A2.7,2.7,0,0,0,8,16.2H2.8A2.8,2.8,0,0,0,0,19V33.7Z" transform="translate(0 -0.3)"/></svg>