<svg id="Layer_1" data-name="Layer 1" xmlns="http://www.w3.org/2000/svg" viewBox="0 0 48.1 47.8"><path d="M47.7,26.4a.3.3,0,0,1,.5.3V47.5a.6.6,0,0,1-.6.6H38.2a.6.6,0,0,1-.6-.6V46a.6.6,0,0,0-.6-.6H31.9a.6.6,0,0,0-.6.6v1.5a.6.6,0,0,1-.5.6H21.6a.6.6,0,0,1-.6-.6V31.2a.9.9,0,0,1,.5-.8l8-4c.3-.1.5,0,.5.3v3.4c0,.3.3.4.6.3l1.2-.6a1.1,1.1,0,0,0,.5-.9l.4-9a.6.6,0,0,1,.6-.6h2.5a.6.6,0,0,1,.6.6l.3,6.9a.3.3,0,0,0,.5.3l1.4-.7c.3-.1.5,0,.5.3v3.4c0,.3.2.4.5.3l1.3-.6a1.2,1.2,0,0,0,.5-.9l.4-9a.6.6,0,0,1,.6-.6h2.5a.6.6,0,0,1,.6.6l.3,6.9c0,.3.2.4.5.3ZM29.2,40H23.1v2.6h6.1Zm0-4.2H23.1v2.6h6.1ZM37.6,40H31.4v2.6h6.2Zm0-4.2H31.4v2.6h6.2ZM45.9,40H39.8v2.6h6.1Zm0-4.2H39.8v2.6h6.1Z" transform="translate(-0.1 -0.3)"/><path d="M10.5,4.2,7.6,1.3C6.3.1,4.5-.1,3.5.9L.7,3.7a2.3,2.3,0,0,0-.6,2,3.5,3.5,0,0,0,1,2.1L4,10.7Z" transform="translate(-0.1 -0.3)"/><path d="M20.2,24.6h.1L25,26.1h.1a.8.8,0,0,0,.7-.1h0a.8.8,0,0,0,.1-.7h0l-1.5-4.8Z" transform="translate(-0.1 -0.3)"/><path d="M5.4,12.1,14.3,21a15.6,15.6,0,0,0,2,1.6l2,1.1,5.2-5.2a16.6,16.6,0,0,0-2.7-4L11.9,5.6Z" transform="translate(-0.1 -0.3)"/></svg>