<svg id="Layer_1" data-name="Layer 1" xmlns="http://www.w3.org/2000/svg" viewBox="0 0 48.1 48.6"><defs><style>.cls-1{fill-rule:evenodd;}</style></defs><path class="cls-1" d="M21.4.3c.7,2.3-.6,4.4-1.2,6.4s-1.6,4.5-1.6,6.3,1.2,2.7.5,4.5-3.7.1-5.4.2-.1,2.6-.7,3.3-2.7.2-4,.2c-.2,2.1-1.1,4-.7,5.9s2.4,2.5,1.2,4.2-7.3.7-9.4,0c-.2-6.2,1.7-11.1,3.7-15.9.6-1.5,1.9-3,2.1-4.5.6-3.1-.6-6.5.3-10.1A1,1,0,0,1,6.9.1C11.6.3,17-.2,21.4.3Z" transform="translate(-0.1 -0.1)"/><path class="cls-1" d="M23.3.3a13,13,0,0,1,5.2,0c.1,4.6-2.1,8.8-3.1,12.9.3,1.4,1.3,2.8.7,4.3s-3.5.1-5.2.2c1-1.2.1-3.2-.4-4.2s1.2-3.9,1.9-6.1S24.3,1.8,23.3.3ZM22.1,15.1c.5.4,1.6.2,2.4.3V12.1H22.1Z" transform="translate(-0.1 -0.1)"/><path class="cls-1" d="M48.2,12.3c-.2,5.9.3,12.4-.3,17.8h-22c-.6,3.4-.1,7.8-.3,11.5,4.6.6,10.1.1,15,.3.6-.8.1-2.5.3-3.6,2.6,1.5,4.8,3.4,7.3,5-2,2.3-4.8,3.6-7.3,5.4V45.1c-6-.1-12.7.3-18.3-.2V27.1H44.9v-12H29.2c.1-.9-.4-2.5.2-3C35.6,12.2,42.4,11.8,48.2,12.3Z" transform="translate(-0.1 -0.1)"/></svg>