<svg id="Layer_1" data-name="Layer 1" xmlns="http://www.w3.org/2000/svg" viewBox="0 0 48.3 48.3"><defs><style>.cls-1{fill-rule:evenodd;}</style></defs><path class="cls-1" d="M18.5.2a4.6,4.6,0,0,1,6.1,5c-.6,6.4-11.4,4.6-9.1-2.4A4.7,4.7,0,0,1,18.5.2Z" transform="translate(0 0)"/><path class="cls-1" d="M39.9,3.3V18.8H32.4c-.5.4-.1,1.9-.2,2.8a57.1,57.1,0,0,1-5.4-3.8c1.3-1.8,3.4-2.8,5.4-4v2.6h5.1c.6-3.1.1-7.2.2-10.8-2.8-.5-6.8,0-10-.2V3.1C31.5,3.2,36.2,2.7,39.9,3.3Z" transform="translate(0 0)"/><path class="cls-1" d="M18.5,13.4c3.7-1,6.5,1.3,6.1,4.9-.6,6.8-11.3,4.2-9.1-2.3A4.5,4.5,0,0,1,18.5,13.4Z" transform="translate(0 0)"/><path class="cls-1" d="M0,16.4H12.2v2.4H2.4v11H7.5c.6-.4.1-1.8.3-2.6,2,.9,3.5,2.4,5.4,3.5C12,32.7,9.5,33.3,8,35c-.5-.5-.1-2-.2-2.9H0Z" transform="translate(0 0)"/><path class="cls-1" d="M18.8,26.5c3.6-.8,6.2,1.3,5.8,4.9-.5,5.6-9.5,5.6-9.3-.7A4,4,0,0,1,18.8,26.5Z" transform="translate(0 0)"/><path class="cls-1" d="M39,26.5a10.2,10.2,0,0,1,.2,2.6c.7.5,1.8.6,2.6,1.2s1.1-1.5,2.3-1.7,1.6,1.1,1.9,2.1-1.3,1.3-1.6,2.1a8.3,8.3,0,0,1,1.1,2.9h2.6c.5.6.1,2,.2,3a3.7,3.7,0,0,1-2.5.5c-.9.4-.6,2-1.4,2.6s1.4,1,1.6,2.1-1.2,1.4-1.9,2.1-1.5-1.1-2.1-1.7a13.4,13.4,0,0,1-3,1.2v2.6a4.7,4.7,0,0,1-3.3,0V45.7c-.7-.6-2-.6-2.6-1.4S31.9,45.6,31,46a3.4,3.4,0,0,1-2.4-2.4c.5-.7,1.2-1.1,1.7-1.8a25.2,25.2,0,0,1-1.2-2.9H26.5c.1-1-.2-2.5.3-3.2h2.1c.8-.5.6-2.1,1.4-2.6s-1.2-1.3-1.7-2.1a7,7,0,0,1,2.1-2.4c1.1.2,1.3,1.3,2.2,1.7a11.8,11.8,0,0,1,2.8-1.2C34.9,26.4,37,25.7,39,26.5ZM32.2,39.2c1.8,5.9,12.7,4.1,10.5-3.5-.7-2.6-3.1-4.3-6.6-3.6S31,35.4,32.2,39.2Z" transform="translate(0 0)"/></svg>