<svg id="Layer_1" data-name="Layer 1" xmlns="http://www.w3.org/2000/svg" viewBox="0 0 48.4 48.4"><defs><style>.cls-1{fill-rule:evenodd;}</style></defs><path class="cls-1" d="M0,16.4v-.7H.3c0-2.6,3-1.9,4.2-1.6S7.8,12.2,9.2,11c-3.1-.7-2.9-6.2.2-6.8A7.5,7.5,0,0,1,19.3.7c1.4.6,2.1,2.1,3.2,3.3s2.7,2.2,2.6,4-1,2.6-2.6,3.3c0,1.7-2.5,2.1-2.3,3.3s1.5,1.2,1.9,2.5c1,3.9-.6,10.7-.3,14.6-1.9,1.7-10.3,2.5-11.7-.5-.6-1.2-.2-4.4-.2-6.8s-.4-5.4,0-7,2-2.1,2.1-3.3a5.5,5.5,0,0,1-2.1-1.9A50.4,50.4,0,0,1,5,15.3C5.6,18.6.5,19.4,0,16.4ZM19,8c-.2-5.4-9.6-4.1-7.2,1.6a4.8,4.8,0,0,1,1.6-.9c.2-5.4,6.4,0,2.1,1.4a3.1,3.1,0,0,0-3,.5C14.9,13.8,19.2,11.1,19,8Z" transform="translate(0 -0.1)"/><path class="cls-1" d="M39.7,26.3c1.2,1.4,3.3,1.9,4.7,3.3,4.1-2.9,6.2,5.1.7,4-.6-.8-1.5-1.3-1.2-2.9l-4.9-3c-1.2.2-1.3,1.4-2.4,1.6.4,1.3,1.6,1.8,2.1,2.9-.2,4.9.6,10.8-.4,15-3,1.7-8.4,1.6-11.3,0-.7-1.8-.5-4.3-.5-7.1s-.4-5.6,0-7.5,1.8-2,2.1-3c-1.2-.6-1.5-2.1-2.5-3.1s-2.6-1.2-2.6-3.5a5.9,5.9,0,0,1,.7-2.3c.4-.6,1.1-.5,1.9-1.2s1.3-2.3,2.1-2.8a8.4,8.4,0,0,1,8.9,0c.7.5,1.2,1.7,2.1,2.6s2.6,1.3,2.6,3.7A3.5,3.5,0,0,1,39.7,26.3Zm-9.9-1.4c.5,1.9,4.9,3.7,6.4.9-1.6-1.3-4.5.5-4.5-2.3a1.7,1.7,0,0,1,1.9-1.9c1.9,0,1.7,3.3,3.5,3.3C39,17.9,28.1,18.5,29.8,24.9Z" transform="translate(0 -0.1)"/></svg>