<svg id="Layer_1" data-name="Layer 1" xmlns="http://www.w3.org/2000/svg" viewBox="0 0 48 48.1"><path d="M5.4,20.4a4.3,4.3,0,0,1,4.3,4.3A4.3,4.3,0,0,1,5.4,29a4.3,4.3,0,0,1-4.3-4.3,4.4,4.4,0,0,1,4.3-4.3" transform="translate(0 -0.2)"/><path d="M21.1,22.3a2.1,2.1,0,0,0-2.8.7l-3.7,6.2L8.5,31.9a2,2,0,0,0-1.1,2.7,2,2,0,0,0,2.7,1l6.8-2.9.6-.5.3-.4,4-6.7a2,2,0,0,0-.7-2.8" transform="translate(0 -0.2)"/><path d="M10.9,48.2V33.5c0-1.6,4.5-2.9,2.9-2.9H2.9A2.9,2.9,0,0,0,0,33.5V48.2Z" transform="translate(0 -0.2)"/><polygon points="36.7 8.1 22.3 18.1 23.1 19.3 37.4 9.3 36.7 8.1"/><path d="M36.3,8.2a1.9,1.9,0,1,1,1.8,1.9,1.9,1.9,0,0,1-1.8-1.9" transform="translate(0 -0.2)"/><path d="M35.2,14.2c-.5.1-.6,1.1-1,1.3a2.1,2.1,0,0,0-1.3,1.8V30.2a2.3,2.3,0,0,0,1.3,1.9,13.3,13.3,0,0,0,9.6,0,2.3,2.3,0,0,0,1.3-1.9V17.3a2.1,2.1,0,0,0-1.3-1.8c-.4-.2-.4-1.2-1-1.3a9.2,9.2,0,0,0,2.9-3,3.8,3.8,0,0,0,2.4-3.5,3.7,3.7,0,0,0-2.4-3.5,7.6,7.6,0,0,0-13.4,0h-.7a.1.1,0,0,0-.1.1h-.1l-.2.2h0l-.2.2h0l-.2.2h0l-.2.2h0v.3h0l-.2.2h0a.4.4,0,0,1-.1.3h0c0,.1,0,.1-.1.2h0v.3h0a.4.4,0,0,0-.1.3h0v.3h0v.3a3.7,3.7,0,0,0,2.3,3.5,9.2,9.2,0,0,0,2.9,3m-.8-6A3.8,3.8,0,1,1,38.1,12a3.8,3.8,0,0,1-3.7-3.8" transform="translate(0 -0.2)"/><path d="M24.9,18.9a2.4,2.4,0,0,1-2.4,2.4,2.3,2.3,0,0,1-2.3-2.4,2.3,2.3,0,0,1,2.3-2.3,2.3,2.3,0,0,1,2.4,2.3" transform="translate(0 -0.2)"/></svg>