<svg xmlns="http://www.w3.org/2000/svg" xmlns:xlink="http://www.w3.org/1999/xlink" xmlns:a="http://ns.adobe.com/AdobeSVGViewerExtensions/3.0/" x="0px" y="0px" width="322px" height="86px" viewBox="-0.84 -0.837 322 86" xml:space="preserve">
<defs>
</defs>
<path fill="#56717D" d="M0,40.148c0.001,22.174,17.973,40.148,40.147,40.148c22.171,0.001,40.145-17.975,40.143-40.147  C80.291,17.975,62.315,0.001,40.147,0C17.972,0.001,0,17.976,0,40.148"></path>
<path fill="#FFFFFF" d="M40.149,2.507c20.779,0.001,37.636,16.855,37.638,37.641c-0.003,20.786-16.856,37.639-37.641,37.643  c-20.786,0-37.642-16.858-37.642-37.643C2.505,19.361,19.359,2.508,40.149,2.507"></path>
<path fill="#F78D1E" d="M40.146,11.929c-6.754,0-12.18,5.475-12.18,12.229c0,5.31,3.385,9.831,8.116,11.519l0.078,0.025  c0.206,0.074,0.312,0.301,0.238,0.507l-0.017,0.044L24.302,67.601c-0.197,0.48-0.782,0.551-1.196,0.307l0.003,0.003  C13.79,62.179,7.571,51.89,7.571,40.146C7.57,22.157,22.155,7.572,40.146,7.572c17.99,0,32.574,14.585,32.573,32.574  c0,11.744-6.219,22.033-15.537,27.765l0.001-0.003c-0.415,0.244-0.999,0.174-1.194-0.307L43.907,36.253l-0.016-0.044  c-0.074-0.206,0.033-0.433,0.238-0.507l0.078-0.025c4.729-1.688,8.116-6.209,8.116-11.519  C52.324,17.404,46.898,11.929,40.146,11.929"></path>
<rect x="94.041" y="36.518" fill="#56717D" width="5.938" height="36.335"></rect>
<path fill="#56717D" d="M131.847,72.853h-5.866v-16.9c0-2.12-0.427-3.702-1.28-4.745c-0.853-1.045-2.207-1.567-4.061-1.567  c-2.472,0-4.277,0.729-5.421,2.188c-1.142,1.457-1.714,3.9-1.714,7.332v13.693h-5.842V45.365h4.574l0.821,3.605h0.299  c0.827-1.309,2.003-2.32,3.526-3.032c1.524-0.712,3.216-1.07,5.07-1.07c6.595,0,9.893,3.356,9.893,10.065V72.853z"></path>
<path fill="#56717D" d="M157.578,65.025c0,2.685-0.978,4.742-2.931,6.175c-1.957,1.434-4.756,2.149-8.401,2.149  c-3.66,0-6.603-0.554-8.824-1.662V66.64c3.232,1.49,6.239,2.237,9.021,2.237c3.598,0,5.396-1.085,5.396-3.257  c0-0.696-0.199-1.276-0.598-1.739c-0.397-0.464-1.051-0.944-1.963-1.442c-0.912-0.496-2.18-1.06-3.801-1.688  c-3.166-1.228-5.308-2.453-6.427-3.679c-1.118-1.228-1.678-2.817-1.678-4.773c0-2.351,0.948-4.178,2.845-5.479  c1.898-1.303,4.479-1.952,7.741-1.952c3.232,0,6.289,0.655,9.173,1.965l-1.887,4.399c-2.968-1.226-5.461-1.84-7.482-1.84  c-3.081,0-4.623,0.879-4.623,2.635c0,0.861,0.399,1.591,1.208,2.186c0.801,0.598,2.553,1.416,5.253,2.462  c2.271,0.879,3.918,1.683,4.945,2.411c1.029,0.729,1.792,1.569,2.289,2.521C157.328,62.56,157.578,63.7,157.578,65.025"></path>
<path fill="#56717D" d="M176.806,73.349c-3.479,0-6.18-1.25-8.102-3.752h-0.349c0.235,2.319,0.349,3.729,0.349,4.226v11.258h-5.841  V45.365h4.724c0.132,0.515,0.403,1.74,0.819,3.68h0.298c1.823-2.785,4.559-4.177,8.202-4.177c3.429,0,6.103,1.242,8.014,3.729  c1.915,2.484,2.87,5.973,2.87,10.463s-0.972,7.996-2.92,10.512C182.925,72.091,180.234,73.349,176.806,73.349 M175.39,49.64  c-2.318,0-4.014,0.68-5.081,2.037c-1.068,1.36-1.604,3.53-1.604,6.514v0.869c0,3.348,0.531,5.769,1.592,7.27  c1.059,1.5,2.791,2.251,5.194,2.251c2.022,0,3.578-0.829,4.673-2.485c1.094-1.659,1.637-4.02,1.637-7.084  c0-3.082-0.539-5.414-1.624-6.996C179.089,50.431,177.493,49.64,175.39,49.64"></path>
<path fill="#56717D" d="M205.778,73.349c-4.276,0-7.617-1.246-10.031-3.739c-2.408-2.495-3.614-5.928-3.614-10.302  c0-4.49,1.119-8.018,3.356-10.588c2.235-2.568,5.309-3.854,9.22-3.854c3.628,0,6.493,1.104,8.6,3.309  c2.103,2.202,3.156,5.234,3.156,9.095v3.157h-18.317c0.084,2.667,0.803,4.718,2.161,6.15c1.36,1.434,3.272,2.149,5.744,2.149  c1.621,0,3.135-0.151,4.535-0.458c1.399-0.309,2.901-0.816,4.511-1.529v4.747c-1.425,0.679-2.869,1.158-4.324,1.44  C209.313,73.208,207.649,73.349,205.778,73.349 M204.709,49.291c-1.854,0-3.341,0.592-4.462,1.766  c-1.118,1.178-1.786,2.893-1.999,5.145h12.478c-0.035-2.27-0.582-3.988-1.641-5.156C208.02,49.877,206.562,49.291,204.709,49.291"></path>
<path fill="#56717D" d="M233.344,73.349c-4.158,0-7.318-1.212-9.482-3.64c-2.159-2.429-3.243-5.91-3.243-10.45  c0-4.625,1.133-8.178,3.393-10.662c2.264-2.486,5.53-3.73,9.807-3.73c2.898,0,5.506,0.539,7.828,1.617l-1.765,4.697  c-2.47-0.962-4.506-1.441-6.112-1.441c-4.757,0-7.136,3.156-7.136,9.471c0,3.081,0.594,5.396,1.776,6.945  c1.186,1.549,2.923,2.323,5.209,2.323c2.6,0,5.062-0.647,7.379-1.938v5.096c-1.041,0.613-2.156,1.051-3.34,1.316  C236.47,73.217,235.034,73.349,233.344,73.349"></path>
<path fill="#56717D" d="M257.94,68.627c1.422,0,2.849-0.222,4.273-0.671v4.4c-0.647,0.281-1.479,0.517-2.496,0.709  c-1.021,0.188-2.078,0.283-3.17,0.283c-5.534,0-8.302-2.914-8.302-8.746V49.791h-3.751v-2.586l4.025-2.137l1.988-5.816h3.604v6.113  h7.828v4.426h-7.828v14.712c0,1.408,0.35,2.45,1.059,3.119C255.871,68.293,256.798,68.627,257.94,68.627"></path>
<path fill="#56717D" d="M290.742,59.06c0,4.49-1.151,7.996-3.452,10.512c-2.304,2.52-5.512,3.777-9.617,3.777  c-2.572,0-4.84-0.578-6.812-1.737c-1.974-1.161-3.489-2.827-4.548-4.997s-1.592-4.688-1.592-7.555c0-4.456,1.146-7.936,3.432-10.439  c2.287-2.5,5.509-3.754,9.669-3.754c3.977,0,7.123,1.28,9.443,3.841C289.584,51.268,290.742,54.72,290.742,59.06 M270.734,59.06  c0,6.346,2.349,9.521,7.036,9.521c4.641,0,6.958-3.176,6.958-9.521c0-6.279-2.334-9.419-7.008-9.419  c-2.454,0-4.229,0.812-5.33,2.437C271.288,53.701,270.734,56.028,270.734,59.06"></path>
<path fill="#56717D" d="M310.271,44.867c1.177,0,2.146,0.084,2.909,0.25l-0.571,5.443c-0.83-0.199-1.69-0.3-2.585-0.3  c-2.338,0-4.23,0.765-5.681,2.287c-1.447,1.524-2.173,3.505-2.173,5.942v14.363h-5.842V45.365h4.572l0.774,4.846h0.297  c0.909-1.639,2.099-2.939,3.563-3.9C307.005,45.35,308.585,44.867,310.271,44.867"></path>
<path fill="#56717D" d="M106.075,12.747c0,1.899-0.621,3.354-1.864,4.365c-1.243,1.011-3.013,1.517-5.309,1.517h-1.891v6.801h-2.971  V7.252h5.233c2.272,0,3.973,0.464,5.104,1.392C105.511,9.574,106.075,10.94,106.075,12.747 M97.012,16.129h1.579  c1.524,0,2.645-0.265,3.356-0.796s1.07-1.359,1.07-2.486c0-1.046-0.32-1.823-0.959-2.338c-0.637-0.514-1.633-0.771-2.983-0.771  h-2.063V16.129z"></path>
<path fill="#56717D" d="M119.937,18.529c0,2.246-0.576,3.999-1.729,5.258c-1.151,1.261-2.756,1.89-4.811,1.89  c-1.285,0-2.421-0.29-3.408-0.87c-0.986-0.58-1.746-1.413-2.274-2.499c-0.53-1.086-0.796-2.346-0.796-3.779  c0-2.23,0.572-3.971,1.717-5.223c1.143-1.251,2.756-1.878,4.836-1.878c1.99,0,3.562,0.641,4.725,1.922  C119.355,14.631,119.937,16.356,119.937,18.529 M109.928,18.529c0,3.175,1.174,4.762,3.519,4.762c2.321,0,3.481-1.587,3.481-4.762  c0-3.142-1.168-4.713-3.507-4.713c-1.226,0-2.114,0.406-2.666,1.219C110.202,15.848,109.928,17.012,109.928,18.529"></path>
<rect x="122.466" y="6.083" fill="#56717D" width="2.921" height="19.347"></rect>
<path fill="#56717D" d="M126.915,11.678h3.185l2.796,7.795c0.424,1.111,0.705,2.156,0.846,3.133h0.101  c0.074-0.454,0.211-1.008,0.41-1.659c0.198-0.65,1.25-3.741,3.157-9.269h3.158l-5.881,15.579c-1.069,2.859-2.852,4.289-5.345,4.289  c-0.647,0-1.278-0.071-1.892-0.211v-2.313c0.44,0.099,0.941,0.149,1.506,0.149c1.409,0,2.4-0.817,2.971-2.45l0.51-1.292  L126.915,11.678z"></path>
<path fill="#56717D" d="M159.767,25.429h-3.232l-3.083-10.841c-0.133-0.473-0.298-1.155-0.498-2.046  c-0.197-0.89-0.318-1.51-0.359-1.859c-0.084,0.531-0.22,1.22-0.404,2.063c-0.187,0.847-0.343,1.476-0.467,1.891l-3.009,10.792  h-3.231l-2.35-9.101l-2.389-9.076h3.034l2.599,10.593c0.405,1.7,0.694,3.199,0.87,4.5c0.092-0.704,0.228-1.492,0.409-2.362  c0.183-0.87,0.35-1.575,0.499-2.114l2.959-10.617h2.945l3.035,10.667c0.288,0.987,0.596,2.462,0.92,4.426  c0.123-1.185,0.422-2.693,0.895-4.525l2.585-10.568h3.01L159.767,25.429z"></path>
<path fill="#56717D" d="M177.683,18.529c0,2.246-0.576,3.999-1.729,5.258c-1.151,1.261-2.756,1.89-4.812,1.89  c-1.284,0-2.42-0.29-3.406-0.87c-0.986-0.58-1.745-1.413-2.275-2.499c-0.53-1.086-0.795-2.346-0.795-3.779  c0-2.23,0.57-3.971,1.714-5.223c1.146-1.251,2.757-1.878,4.838-1.878c1.988,0,3.562,0.641,4.725,1.922  C177.102,14.631,177.683,16.356,177.683,18.529 M167.675,18.529c0,3.175,1.173,4.762,3.518,4.762c2.321,0,3.481-1.587,3.481-4.762  c0-3.142-1.169-4.713-3.507-4.713c-1.227,0-2.115,0.406-2.666,1.219C167.948,15.848,167.675,17.012,167.675,18.529"></path>
<path fill="#56717D" d="M187.159,11.429c0.588,0,1.074,0.042,1.455,0.125l-0.287,2.723c-0.415-0.1-0.845-0.149-1.293-0.149  c-1.169,0-2.115,0.381-2.841,1.144c-0.725,0.762-1.088,1.753-1.088,2.971v7.186h-2.923v-13.75h2.288l0.386,2.424h0.149  c0.457-0.82,1.05-1.471,1.785-1.952C185.523,11.67,186.313,11.429,187.159,11.429"></path>
<polygon fill="#56717D" points="193.187,18.168 194.841,16.104 198.992,11.678 202.362,11.678 196.83,17.583 202.71,25.43   199.279,25.43 194.865,19.397 193.263,20.716 193.263,25.43 190.364,25.43 190.364,6.083 193.263,6.083 193.263,15.521   193.112,18.168 "></polygon>
<path fill="#56717D" d="M213.92,21.513c0,1.343-0.49,2.372-1.467,3.089c-0.979,0.718-2.379,1.076-4.202,1.076  c-1.833,0-3.305-0.277-4.414-0.832v-2.525c1.615,0.745,3.12,1.119,4.512,1.119c1.8,0,2.698-0.543,2.698-1.629  c0-0.348-0.098-0.638-0.298-0.87c-0.199-0.232-0.525-0.473-0.982-0.721c-0.456-0.249-1.089-0.531-1.9-0.845  c-1.583-0.614-2.656-1.227-3.218-1.841c-0.557-0.613-0.836-1.409-0.836-2.387c0-1.177,0.474-2.09,1.421-2.741  c0.95-0.651,2.242-0.977,3.875-0.977c1.616,0,3.145,0.329,4.586,0.983l-0.944,2.201c-1.483-0.613-2.73-0.92-3.741-0.92  c-1.542,0-2.312,0.44-2.312,1.318c0,0.431,0.2,0.795,0.602,1.093c0.402,0.3,1.278,0.71,2.63,1.23  c1.136,0.441,1.96,0.842,2.475,1.206c0.514,0.365,0.894,0.786,1.144,1.263C213.796,20.28,213.92,20.85,213.92,21.513"></path>
<path fill="#56717D" d="M314.958,41.779h-0.656v-2.663h-0.908v-0.58h2.486v0.58h-0.922V41.779z M317.604,41.779l-0.833-2.443h-0.025  l0.018,0.535v1.908h-0.636v-3.243h0.977l0.802,2.403l0.841-2.403h0.945v3.243h-0.662v-1.863l0.02-0.58h-0.028l-0.867,2.443H317.604z  "></path>
</svg>