<svg id="Layer_1" data-name="Layer 1" xmlns="http://www.w3.org/2000/svg" viewBox="0 0 48.2 48.5"><defs><style>.cls-1{fill-rule:evenodd;}</style></defs><path class="cls-1" d="M25.4,19.6c1.9,4.3,3.7,8.8,5.6,13.1h9.2c1.5,2.4,2.8,4.8,4.2,7.3s3,4.8,3.7,7.7c-1.5,1.2-3.7.7-5.6.7H5.4c-1.8,0-3.9.5-5.3-.7C.8,45,2.4,42.5,3.8,40S6.5,35.1,8,32.7h5c2.1-4.1,3.8-8.5,5.6-12.9-1.5-1.2-4.2-1.3-4.9-3.5S13,5.4,13.7,3.6,17.9.3,20.5.1s9.1.6,10,3.8c.5,1.4,0,4.1,0,6.3s.5,4.5,0,5.8S27.6,18.8,25.4,19.6ZM28,14.9c-.3-2.9-11.3-3.3-12,.2.7,1.3,2.3,1.7,3.8,2.1.8-1.5.8-3.7,2.5-3.5s1,2.6,2.4,3.5C26,16.5,28.1,16.6,28,14.9Zm-6.6,4.9c-2.4,5.8-5,11.4-7.3,17.4a33.3,33.3,0,0,1,16,0c-1.7-4.5-3.9-9-5.7-13.2-.6-1.4-.8-3.2-2.1-4.2ZM9.7,35c-2.3,3.4-4.1,7.2-6.1,10.8h41c-1.8-3.7-3.9-7.1-5.8-10.8H32.2c.2,2.7,2.3,3.9,1.9,6.1s-7.5,3.8-12.5,3.8S10.2,43.8,9.9,40.7,11.5,38.1,12,35Zm3,5.7c4.8,2.1,14.4,2.4,18.8-.3C27.1,38.2,16.8,37.9,12.7,40.7Z" transform="translate(-0.1 0)"/><path class="cls-1" d="M38.3,13.5a8.6,8.6,0,0,1,9.8,7c1.2,7.5-7.7,14.1-14.5,8.9S30.1,14.4,38.3,13.5Zm4.4,4.7A40.9,40.9,0,0,1,38,22.8c-1.2-.3-1.5-2.3-2.5-2.3a18.9,18.9,0,0,0-2.4,2.6l2.4,2.3c1,1.1,2,1.7,2.3,2.4,2.9-2,4.8-4.9,7.5-7.1A4.9,4.9,0,0,0,42.7,18.2Z" transform="translate(-0.1 0)"/></svg>