<?xml version="1.0" encoding="UTF-8"?>
<svg width="34px" height="34px" viewBox="0 0 34 34" version="1.1" xmlns="http://www.w3.org/2000/svg" xmlns:xlink="http://www.w3.org/1999/xlink">
    <title>icon-Areas-application</title>
    <g id="Angepasste-Screens" stroke="none" stroke-width="1" fill="none" fill-rule="evenodd">
        <g id="01-Home" transform="translate(-820.000000, -1968.000000)" fill="#FEBF00" fill-rule="nonzero">
            <g id="icon-Areas-application-2" transform="translate(820.000000, 1968.000000)">
                <path d="M17,0 C17.3962822,0 17.7228919,0.298303783 17.7675286,0.682610949 L17.7727273,0.772727273 L17.7724115,3.11199269 C24.8393318,3.49878164 30.5012184,9.16066824 30.8880073,16.2275885 L33.2272727,16.2272727 C33.6540382,16.2272727 34,16.5732345 34,17 C34,17.3962822 33.7016962,17.7228919 33.3173891,17.7675286 L33.2272727,17.7727273 L30.8880073,17.7724115 C30.5012184,24.8393318 24.8393318,30.5012184 17.7724115,30.8880073 L17.7727273,33.2272727 C17.7727273,33.6540382 17.4267655,34 17,34 C16.6037178,34 16.2771081,33.7016962 16.2324714,33.3173891 L16.2272727,33.2272727 L16.2275885,30.8880073 C9.16066824,30.5012184 3.49878164,24.8393318 3.11199269,17.7724115 L0.772727273,17.7727273 C0.345961784,17.7727273 0,17.4267655 0,17 C0,16.6037178 0.298303783,16.2771081 0.682610949,16.2324714 L0.772727273,16.2272727 L3.11199269,16.2275885 C3.49878164,9.16066824 9.16066824,3.49878164 16.2275885,3.11199269 L16.2272727,0.772727273 C16.2272727,0.345961784 16.5732345,0 17,0 Z M17.7727074,4.66011627 L17.7727273,6.18181818 C17.7727273,6.60858367 17.4267655,6.95454545 17,6.95454545 C16.6037178,6.95454545 16.2771081,6.65624167 16.2324714,6.27193451 L16.2272727,6.18181818 L16.2272926,4.66011627 C10.0144312,5.04321321 5.04321321,10.0144312 4.66011627,16.2272926 L6.18181818,16.2272727 C6.60858367,16.2272727 6.95454545,16.5732345 6.95454545,17 C6.95454545,17.3962822 6.65624167,17.7228919 6.27193451,17.7675286 L6.18181818,17.7727273 L4.66011627,17.7727074 C5.04321321,23.9855688 10.0144312,28.9567868 16.2272926,29.3398837 L16.2272727,27.8181818 C16.2272727,27.3914163 16.5732345,27.0454545 17,27.0454545 C17.3962822,27.0454545 17.7228919,27.3437583 17.7675286,27.7280655 L17.7727273,27.8181818 L17.7727074,29.3398837 C23.9855688,28.9567868 28.9567868,23.9855688 29.3398837,17.7727074 L27.8181818,17.7727273 C27.3914163,17.7727273 27.0454545,17.4267655 27.0454545,17 C27.0454545,16.6037178 27.3437583,16.2771081 27.7280655,16.2324714 L27.8181818,16.2272727 L29.3398837,16.2272926 C28.9567868,10.0144312 23.9855688,5.04321321 17.7727074,4.66011627 Z M17,13.9090909 C17.3962822,13.9090909 17.7228919,14.2073947 17.7675286,14.5917019 L17.7727273,14.6818182 L17.772,16.227 L19.3181818,16.2272727 C19.7449473,16.2272727 20.0909091,16.5732345 20.0909091,17 C20.0909091,17.3962822 19.7926053,17.7228919 19.4082981,17.7675286 L19.3181818,17.7727273 L17.772,17.772 L17.7727273,19.3181818 C17.7727273,19.7449473 17.4267655,20.0909091 17,20.0909091 C16.6037178,20.0909091 16.2771081,19.7926053 16.2324714,19.4082981 L16.2272727,19.3181818 L16.227,17.772 L14.6818182,17.7727273 C14.2550527,17.7727273 13.9090909,17.4267655 13.9090909,17 C13.9090909,16.6037178 14.2073947,16.2771081 14.5917019,16.2324714 L14.6818182,16.2272727 L16.227,16.227 L16.2272727,14.6818182 C16.2272727,14.2550527 16.5732345,13.9090909 17,13.9090909 Z" id="icon-Areas-application"></path>
            </g>
        </g>
    </g>
</svg>