<?xml version="1.0" encoding="UTF-8"?>
<svg width="30px" height="34px" viewBox="0 0 30 34" version="1.1" xmlns="http://www.w3.org/2000/svg" xmlns:xlink="http://www.w3.org/1999/xlink">
    <title>icon-products</title>
    <g id="Angepasste-Screens" stroke="none" stroke-width="1" fill="none" fill-rule="evenodd">
        <g id="01-Home" transform="translate(-1074.000000, -1966.000000)" fill="#FEBF00" fill-rule="nonzero">
            <g id="icon-products" transform="translate(1072.000000, 1966.000000)">
                <path d="M17.1053719,0.733850563 L31.892562,7.73830902 L31.892562,26.4188005 L17.1053719,33.4232589 L2.31818182,26.4188005 L2.31818182,7.73830902 L2.74080619,7.53840845 C2.74604708,7.53574968 2.75131674,7.53315117 2.75661403,7.53061333 L17.1053719,0.733850563 Z M30.3461818,9.44785056 L17.5091818,15.5288506 L17.5092975,25.8244226 C17.5092975,26.2511881 17.1633357,26.5971499 16.7365702,26.5971499 C16.340288,26.5971499 16.0136784,26.2988461 15.9690417,25.9145389 L15.963843,25.8244226 L15.9631818,15.1788506 L3.86318182,9.44785056 L3.86363636,25.4405 L17.1050909,31.7127273 L30.3465455,25.4405 L30.3461818,9.44785056 Z M17.1050909,2.44336364 L4.89418182,8.22685056 L17.1050909,14.0103182 L29.3151818,8.22685056 L17.1050909,2.44336364 Z"></path>
            </g>
        </g>
    </g>
</svg>