<?xml version="1.0" encoding="UTF-8"?>
<svg width="32px" height="28px" viewBox="0 0 32 28" version="1.1" xmlns="http://www.w3.org/2000/svg" xmlns:xlink="http://www.w3.org/1999/xlink">
    <title>icon-technology</title>
    <g id="Angepasste-Screens" stroke="none" stroke-width="1" fill="none" fill-rule="evenodd">
        <g id="01-Home" transform="translate(-1236.000000, -1969.000000)" fill="#FEBF00" fill-rule="nonzero">
            <g id="icon-technology" transform="translate(1235.000000, 1966.000000)">
                <path d="M29.908607,25.9672304 C31.2286658,25.9672304 32.29844,27.0370046 32.29844,28.3570635 C32.29844,29.6771223 31.2286658,30.7468965 29.908607,30.7468965 C28.7805175,30.7468965 27.8352105,29.9656418 27.5841256,28.9145718 L24.1284372,28.9145718 C23.8773523,29.9656418 22.9320453,30.7468965 21.8039558,30.7468965 C20.483897,30.7468965 19.4141228,29.6771223 19.4141228,28.3570635 C19.4141228,27.0370046 20.483897,25.9672304 21.8039558,25.9672304 C22.7993106,25.9672304 23.6523658,26.5754513 24.0118061,27.4405775 L27.6328276,27.4408034 L27.6987074,27.4455258 C28.0569466,26.5777714 28.9113556,25.9672304 29.908607,25.9672304 Z M30.0944,18.5993658 C31.4144588,18.5993658 32.484233,19.6691399 32.484233,20.9891988 C32.484233,22.3092576 31.4144588,23.3790318 30.0944,23.3790318 C28.9648725,23.3790318 28.0185939,22.5957841 27.7689618,21.5426864 L20.3308174,21.5467383 L11.9138033,28.922158 L6.44362809,28.9226053 C6.18965591,29.9696202 5.24629413,30.7468965 4.12108057,30.7468965 C2.80102171,30.7468965 1.73124753,29.6771223 1.73124753,28.3570635 C1.73124753,27.0370046 2.80102171,25.9672304 4.12108057,25.9672304 C5.11909058,25.9672304 5.97404084,26.5787007 6.33179688,27.4475067 L11.3037096,27.4487551 L19.719798,20.0729387 L27.8865497,20.0727128 C28.2459901,19.2075866 29.0990453,18.5993658 30.0944,18.5993658 Z M21.8039558,27.4408034 C21.2977288,27.4408034 20.8876957,27.8508365 20.8876957,28.3570635 C20.8876957,28.8632905 21.2977288,29.2733236 21.8039558,29.2733236 C22.3101828,29.2733236 22.7202159,28.8632905 22.7202159,28.3570635 C22.7202159,27.8508365 22.3101828,27.4408034 21.8039558,27.4408034 Z M29.908607,27.4408034 C29.40238,27.4408034 28.9923469,27.8508365 28.9923469,28.3570635 C28.9923469,28.8632905 29.40238,29.2733236 29.908607,29.2733236 C30.414834,29.2733236 30.8248671,28.8632905 30.8248671,28.3570635 C30.8248671,27.8508365 30.414834,27.4408034 29.908607,27.4408034 Z M4.12108057,27.4408034 C3.61485358,27.4408034 3.20482047,27.8508365 3.20482047,28.3570635 C3.20482047,28.8632905 3.61485358,29.2733236 4.12108057,29.2733236 C4.62730756,29.2733236 5.03734067,28.8632905 5.03734067,28.3570635 C5.03734067,27.8508365 4.62730756,27.4408034 4.12108057,27.4408034 Z M30.0944,20.0729387 C29.588173,20.0729387 29.1781399,20.4829718 29.1781399,20.9891988 C29.1781399,21.4954258 29.588173,21.9054589 30.0944,21.9054589 C30.600627,21.9054589 31.0106601,21.4954258 31.0106601,20.9891988 C31.0106601,20.4829718 30.600627,20.0729387 30.0944,20.0729387 Z M29.908607,3.86363636 C31.2286658,3.86363636 32.29844,4.93341054 32.29844,6.2534694 C32.29844,7.57352825 31.2286658,8.64330243 29.908607,8.64330243 C28.7806996,8.64330243 27.8355157,7.86229991 27.5842472,6.81148667 L22.725978,6.81061221 L14.3098896,14.1864286 L6.25796624,14.1863351 C6.00418779,15.2336231 5.0606949,16.0111671 3.93528758,16.0111671 C2.61522873,16.0111671 1.54545455,14.9413929 1.54545455,13.6213341 C1.54545455,12.3012752 2.61522873,11.2315011 3.93528758,11.2315011 C4.93557356,11.2315011 5.79214654,11.8457634 6.14844372,12.7177252 L13.6988702,12.7126289 L22.1158842,5.3372093 L27.7007568,5.33698346 C28.0601971,4.47185719 28.9132523,3.86363636 29.908607,3.86363636 Z M29.908607,11.2315011 C31.2286658,11.2315011 32.29844,12.3012752 32.29844,13.6213341 C32.29844,14.9413929 31.2286658,16.0111671 29.908607,16.0111671 C28.7806996,16.0111671 27.8355157,15.2301646 27.5842472,14.1793514 L24.1283156,14.1793514 C23.8770471,15.2301646 22.9318633,16.0111671 21.8039558,16.0111671 C20.483897,16.0111671 19.4141228,14.9413929 19.4141228,13.6213341 C19.4141228,12.3012752 20.483897,11.2315011 21.8039558,11.2315011 C22.7993106,11.2315011 23.6523658,11.8397219 24.0118061,12.7048482 L27.6328276,12.705074 L27.6982988,12.7107867 C28.0562966,11.8425066 28.9109763,11.2315011 29.908607,11.2315011 Z M3.93528758,12.705074 C3.42906059,12.705074 3.01902748,13.1151071 3.01902748,13.6213341 C3.01902748,14.1275611 3.42906059,14.5375942 3.93528758,14.5375942 C4.44151457,14.5375942 4.85154768,14.1275611 4.85154768,13.6213341 C4.85154768,13.1151071 4.44151457,12.705074 3.93528758,12.705074 Z M21.8039558,12.705074 C21.2977288,12.705074 20.8876957,13.1151071 20.8876957,13.6213341 C20.8876957,14.1275611 21.2977288,14.5375942 21.8039558,14.5375942 C22.3101828,14.5375942 22.7202159,14.1275611 22.7202159,13.6213341 C22.7202159,13.1151071 22.3101828,12.705074 21.8039558,12.705074 Z M29.908607,12.705074 C29.40238,12.705074 28.9923469,13.1151071 28.9923469,13.6213341 C28.9923469,14.1275611 29.40238,14.5375942 29.908607,14.5375942 C30.414834,14.5375942 30.8248671,14.1275611 30.8248671,13.6213341 C30.8248671,13.1151071 30.414834,12.705074 29.908607,12.705074 Z M12.2257317,3.86363636 C13.5457906,3.86363636 14.6155648,4.93341054 14.6155648,6.2534694 C14.6155648,7.57352825 13.5457906,8.64330243 12.2257317,8.64330243 C11.0978243,8.64330243 10.1526404,7.86229991 9.90137197,6.81148667 L6.44544033,6.81148667 C6.19417185,7.86229991 5.248988,8.64330243 4.12108057,8.64330243 C2.80102171,8.64330243 1.73124753,7.57352825 1.73124753,6.2534694 C1.73124753,4.93341054 2.80102171,3.86363636 4.12108057,3.86363636 C5.11643529,3.86363636 5.9694905,4.47185719 6.32893081,5.33698346 L9.94995233,5.3372093 L10.0154236,5.34292204 C10.3734214,4.47464187 11.228101,3.86363636 12.2257317,3.86363636 Z M4.12108057,5.3372093 C3.61485358,5.3372093 3.20482047,5.74724241 3.20482047,6.2534694 C3.20482047,6.75969639 3.61485358,7.1697295 4.12108057,7.1697295 C4.62730756,7.1697295 5.03734067,6.75969639 5.03734067,6.2534694 C5.03734067,5.74724241 4.62730756,5.3372093 4.12108057,5.3372093 Z M12.2257317,5.3372093 C11.7195047,5.3372093 11.3094716,5.74724241 11.3094716,6.2534694 C11.3094716,6.75969639 11.7195047,7.1697295 12.2257317,7.1697295 C12.7319587,7.1697295 13.1419918,6.75969639 13.1419918,6.2534694 C13.1419918,5.74724241 12.7319587,5.3372093 12.2257317,5.3372093 Z M29.908607,5.3372093 C29.40238,5.3372093 28.9923469,5.74724241 28.9923469,6.2534694 C28.9923469,6.75969639 29.40238,7.1697295 29.908607,7.1697295 C30.414834,7.1697295 30.8248671,6.75969639 30.8248671,6.2534694 C30.8248671,5.74724241 30.414834,5.3372093 29.908607,5.3372093 Z"></path>
            </g>
        </g>
    </g>
</svg>